<svg xmlns="http://www.w3.org/2000/svg" xmlns:xlink="http://www.w3.org/1999/xlink" width="1080" zoomAndPan="magnify" viewBox="0 0 810 809.999993" height="1080" preserveAspectRatio="xMidYMid meet" version="1.0"><defs><clipPath id="id1"><path d="M 179 347 L 376 347 L 376 801.800781 L 179 801.800781 Z M 179 347 " clip-rule="nonzero"/></clipPath><clipPath id="id2"><path d="M 190 667 L 241 667 L 241 801.800781 L 190 801.800781 Z M 190 667 " clip-rule="nonzero"/></clipPath></defs><path fill="#f2df3a" d="M 526.859375 210.117188 C 552.023438 218.8125 559.507812 216.183594 560.574219 215.671875 C 562.027344 211.914062 557.867188 199.785156 550.105469 186.015625 C 540.980469 186.539062 532.085938 186.820312 523.457031 186.820312 C 494.414062 186.820312 470.613281 183.832031 451.355469 179.53125 C 453.925781 183.523438 456.644531 187.746094 459.523438 192.25 C 472.945312 213.148438 488.148438 236.851562 506.199219 264.15625 C 506.707031 264.929688 507.1875 265.71875 507.699219 266.507812 C 511.191406 265.84375 513.761719 264.589844 515.214844 262.734375 C 520.65625 255.789062 516.265625 237.300781 511.5625 226.980469 C 509.523438 222.480469 510.34375 217.171875 513.667969 213.507812 C 517.007812 209.839844 522.1875 208.507812 526.859375 210.117188 Z M 526.859375 210.117188 " fill-opacity="1" fill-rule="nonzero"/><path fill="#f2df3a" d="M 634.453125 174.84375 C 622.511719 177.242188 610.046875 179.378906 597.074219 181.234375 C 590.238281 182.207031 583.492188 183.058594 576.828125 183.769531 C 586.972656 204.671875 588.179688 219.957031 580.492188 230.445312 C 571.988281 242.019531 556.585938 242.683594 541.226562 239.777344 C 543.4375 252.105469 543.359375 266.878906 534.714844 277.941406 C 530.925781 282.800781 526.007812 286.375 519.992188 288.664062 C 531.234375 312.179688 537.933594 336.730469 541.875 358.421875 C 615.847656 410.511719 692.046875 397.59375 734.113281 325.699219 C 770.8125 263.042969 679.875 200.898438 634.453125 174.84375 Z M 634.453125 174.84375 " fill-opacity="1" fill-rule="nonzero"/><path fill="#f2df3a" d="M 229.195312 440.523438 C 218.789062 431.90625 143.300781 409.273438 99.054688 523.835938 C 46.332031 660.335938 114.675781 745.144531 114.675781 745.144531 C 136.804688 687.859375 171.941406 673.546875 220.085938 626.671875 C 268.230469 579.824219 265.339844 470.476562 229.195312 440.523438 Z M 229.195312 440.523438 " fill-opacity="1" fill-rule="nonzero"/><g clip-path="url(#id1)"><path fill="#f2df3a" d="M 330.554688 354.027344 C 312.355469 342.472656 290.394531 345.210938 265.246094 362.164062 C 265.230469 362.179688 265.214844 362.195312 265.199219 362.195312 C 244.167969 356.71875 207.171875 367.953125 179.84375 409.847656 C 186.851562 408.515625 193.222656 408.050781 198.636719 408.050781 C 216.945312 408.050781 235.132812 413.3125 244.957031 421.449219 C 255.253906 429.972656 263.621094 442.414062 269.714844 457.714844 C 276.457031 434.289062 285.628906 400.332031 282.273438 380.558594 C 290.160156 375.546875 305.441406 367.394531 317.273438 374.914062 C 326.859375 381.007812 339.664062 399.417969 346.175781 452.546875 C 350.644531 489.042969 351.433594 536.675781 348.480469 594.136719 C 343.421875 692.605469 328.996094 786.59375 328.855469 787.519531 C 327.804688 794.28125 332.429688 800.59375 339.1875 801.644531 C 339.835938 801.738281 340.46875 801.800781 341.089844 801.800781 C 347.089844 801.800781 352.347656 797.421875 353.304688 791.3125 C 353.460938 790.367188 368.058594 695.300781 373.179688 595.574219 C 380.402344 455.824219 366.4375 376.816406 330.554688 354.027344 Z M 330.554688 354.027344 " fill-opacity="1" fill-rule="nonzero"/></g><path fill="#f2df3a" d="M 410.3125 161.878906 C 402.625 171.703125 397.304688 183.816406 393.839844 198.746094 C 391.984375 206.730469 386.324219 213.210938 378.839844 216.183594 C 380.152344 236.664062 380.554688 261.683594 378.839844 290.8125 C 373.628906 379.339844 460.820312 529.050781 494.660156 516.039062 C 528.5 503.027344 538.90625 358.515625 485.550781 277.804688 C 451.882812 226.84375 427.015625 186.789062 410.3125 161.878906 Z M 410.3125 161.878906 " fill-opacity="1" fill-rule="nonzero"/><path fill="#f2df3a" d="M 767.347656 62.988281 C 751.882812 43.929688 685.984375 8.316406 615.707031 34.355469 C 561.410156 54.480469 526.519531 95.570312 470.828125 107.207031 C 471.027344 108.84375 471.074219 110.5 470.953125 112.1875 C 470.148438 122.167969 463.421875 130.691406 453.894531 133.769531 C 444.335938 136.863281 436.0625 140.621094 428.902344 145.1875 C 429.441406 145.992188 430 146.8125 430.570312 147.660156 C 459.429688 158.523438 510.730469 168.5625 593.59375 156.726562 C 739.339844 135.890625 785.007812 84.773438 767.347656 62.988281 Z M 767.347656 62.988281 " fill-opacity="1" fill-rule="nonzero"/><path fill="#f2df3a" d="M 154.683594 403.550781 C 157.125 399.402344 159.648438 395.457031 162.246094 391.730469 C 136.355469 181.683594 162.015625 104.3125 188.582031 76.589844 C 202.890625 61.660156 221.507812 56.894531 245.605469 62.015625 C 247.847656 62.496094 255.996094 64.351562 265.355469 68.050781 C 265.183594 93.34375 287.207031 127.378906 309.894531 143.71875 C 342.433594 167.15625 347.628906 167.15625 369.761719 193.191406 C 381.144531 144.027344 410.265625 121.871094 446.300781 110.238281 C 446.300781 110.238281 399.6875 86.445312 374.972656 68.21875 C 350.257812 49.996094 313.808594 23.957031 279.96875 42.183594 C 278.222656 43.125 276.644531 44.191406 275.238281 45.335938 C 264.195312 40.898438 254.527344 38.609375 250.707031 37.804688 C 218.078125 30.871094 191.167969 38.160156 170.738281 59.460938 C 145.328125 85.980469 131.238281 132.792969 127.648438 202.597656 C 124.851562 257.070312 128.730469 325.640625 139.171875 406.425781 C 144.199219 405.265625 149.378906 404.308594 154.683594 403.550781 Z M 154.683594 403.550781 " fill-opacity="1" fill-rule="nonzero"/><path fill="#f2df3a" d="M 280.867188 514.507812 C 281.808594 538.160156 278.886719 562.046875 272.40625 583.570312 C 264.953125 608.304688 252.828125 629.363281 237.347656 644.429688 C 236.648438 645.097656 235.984375 645.746094 235.289062 646.394531 C 246.5 662.71875 256.292969 680.058594 256.292969 680.058594 C 319.453125 604.390625 301.851562 541.71875 280.339844 505.828125 C 280.558594 508.691406 280.742188 511.582031 280.867188 514.507812 Z M 280.867188 514.507812 " fill-opacity="1" fill-rule="nonzero"/><path fill="#f2df3a" d="M 128.019531 435.433594 C 24.820312 472.332031 32.675781 607.160156 32.675781 607.160156 C 32.675781 595.804688 45.558594 584.3125 58.84375 575.476562 C 62.433594 555.425781 68.136719 535.175781 75.964844 514.925781 C 89.355469 480.253906 106.863281 453.582031 128.019531 435.433594 Z M 128.019531 435.433594 " fill-opacity="1" fill-rule="nonzero"/><g clip-path="url(#id2)"><path fill="#f2df3a" d="M 211.703125 667.855469 C 206.941406 671.96875 202.378906 675.835938 198.015625 679.519531 C 195.402344 681.730469 192.867188 683.882812 190.410156 685.96875 C 200.785156 731.75 210.113281 769.125 216.128906 792.519531 C 217.566406 798.101562 222.59375 801.816406 228.097656 801.816406 C 229.117188 801.816406 230.15625 801.691406 231.191406 801.429688 C 237.808594 799.726562 241.785156 792.980469 240.082031 786.359375 C 233.589844 760.988281 223.148438 719.078125 211.703125 667.855469 Z M 211.703125 667.855469 " fill-opacity="1" fill-rule="nonzero"/></g></svg>