<svg xmlns="http://www.w3.org/2000/svg" xmlns:xlink="http://www.w3.org/1999/xlink" width="1080" zoomAndPan="magnify" viewBox="0 0 810 809.999993" height="1080" preserveAspectRatio="xMidYMid meet" version="1.0"><defs><clipPath id="id1"><path d="M 20.519531 667 L 789 667 L 789 789 L 20.519531 789 Z M 20.519531 667 " clip-rule="nonzero"/></clipPath><clipPath id="id2"><path d="M 20.519531 470 L 131 470 L 131 544 L 20.519531 544 Z M 20.519531 470 " clip-rule="nonzero"/></clipPath><clipPath id="id3"><path d="M 289 20.519531 L 519 20.519531 L 519 250 L 289 250 Z M 289 20.519531 " clip-rule="nonzero"/></clipPath><clipPath id="id4"><path d="M 20.519531 699 L 142 699 L 142 722 L 20.519531 722 Z M 20.519531 699 " clip-rule="nonzero"/></clipPath></defs><path fill="#8de06a" d="M 404.277344 677.835938 C 403.566406 677.835938 402.863281 677.765625 402.167969 677.628906 C 401.472656 677.492188 400.796875 677.285156 400.140625 677.015625 C 399.484375 676.742188 398.863281 676.410156 398.273438 676.015625 C 397.683594 675.621094 397.136719 675.175781 396.636719 674.671875 C 396.132812 674.171875 395.683594 673.625 395.289062 673.035156 C 394.898438 672.445312 394.5625 671.820312 394.292969 671.164062 C 394.019531 670.511719 393.816406 669.835938 393.679688 669.136719 C 393.539062 668.441406 393.472656 667.738281 393.472656 667.03125 L 393.472656 462.84375 C 393.472656 462.136719 393.539062 461.433594 393.679688 460.734375 C 393.816406 460.039062 394.023438 459.363281 394.292969 458.710938 C 394.566406 458.054688 394.898438 457.429688 395.292969 456.839844 C 395.6875 456.25 396.136719 455.707031 396.636719 455.203125 C 397.136719 454.703125 397.683594 454.253906 398.273438 453.859375 C 398.863281 453.464844 399.488281 453.132812 400.140625 452.859375 C 400.796875 452.589844 401.472656 452.386719 402.167969 452.246094 C 402.863281 452.109375 403.566406 452.039062 404.277344 452.039062 C 404.988281 452.039062 405.691406 452.109375 406.386719 452.246094 C 407.082031 452.386719 407.757812 452.589844 408.414062 452.859375 C 409.066406 453.132812 409.691406 453.464844 410.28125 453.859375 C 410.871094 454.253906 411.417969 454.703125 411.917969 455.203125 C 412.417969 455.707031 412.867188 456.25 413.261719 456.839844 C 413.65625 457.429688 413.988281 458.054688 414.261719 458.710938 C 414.53125 459.363281 414.738281 460.039062 414.875 460.734375 C 415.015625 461.433594 415.082031 462.136719 415.082031 462.84375 L 415.082031 667.011719 C 415.085938 667.722656 415.015625 668.425781 414.878906 669.121094 C 414.742188 669.820312 414.535156 670.496094 414.265625 671.152344 C 413.996094 671.808594 413.664062 672.433594 413.269531 673.023438 C 412.875 673.613281 412.425781 674.160156 411.925781 674.664062 C 411.421875 675.167969 410.875 675.613281 410.285156 676.011719 C 409.695312 676.40625 409.074219 676.738281 408.417969 677.011719 C 407.761719 677.28125 407.085938 677.488281 406.386719 677.628906 C 405.691406 677.765625 404.988281 677.835938 404.277344 677.835938 Z M 404.277344 677.835938 " fill-opacity="1" fill-rule="nonzero"/><path fill="#8de06a" d="M 678.707031 677.835938 C 677.996094 677.835938 677.292969 677.765625 676.597656 677.628906 C 675.902344 677.492188 675.226562 677.285156 674.570312 677.015625 C 673.914062 676.742188 673.292969 676.410156 672.699219 676.015625 C 672.109375 675.621094 671.566406 675.175781 671.0625 674.671875 C 670.5625 674.171875 670.113281 673.625 669.71875 673.035156 C 669.324219 672.445312 668.992188 671.820312 668.722656 671.164062 C 668.449219 670.511719 668.246094 669.835938 668.105469 669.136719 C 667.96875 668.441406 667.898438 667.738281 667.898438 667.03125 L 667.898438 462.84375 C 667.898438 462.136719 667.96875 461.433594 668.109375 460.734375 C 668.246094 460.039062 668.449219 459.363281 668.722656 458.710938 C 668.992188 458.054688 669.328125 457.429688 669.722656 456.839844 C 670.117188 456.25 670.5625 455.707031 671.066406 455.203125 C 671.566406 454.703125 672.113281 454.253906 672.703125 453.859375 C 673.292969 453.464844 673.914062 453.132812 674.570312 452.859375 C 675.226562 452.589844 675.902344 452.386719 676.597656 452.246094 C 677.292969 452.109375 677.996094 452.039062 678.707031 452.039062 C 679.414062 452.039062 680.117188 452.109375 680.8125 452.246094 C 681.507812 452.386719 682.183594 452.589844 682.839844 452.859375 C 683.496094 453.132812 684.117188 453.464844 684.710938 453.859375 C 685.300781 454.253906 685.84375 454.703125 686.347656 455.203125 C 686.847656 455.707031 687.296875 456.25 687.691406 456.839844 C 688.085938 457.429688 688.417969 458.054688 688.6875 458.710938 C 688.960938 459.363281 689.164062 460.039062 689.304688 460.734375 C 689.441406 461.433594 689.511719 462.136719 689.511719 462.84375 L 689.511719 667.011719 C 689.511719 667.722656 689.445312 668.425781 689.308594 669.121094 C 689.167969 669.820312 688.964844 670.496094 688.695312 671.152344 C 688.421875 671.808594 688.089844 672.433594 687.695312 673.023438 C 687.304688 673.613281 686.855469 674.160156 686.351562 674.664062 C 685.851562 675.167969 685.304688 675.613281 684.714844 676.011719 C 684.125 676.40625 683.5 676.738281 682.84375 677.011719 C 682.1875 677.28125 681.511719 677.488281 680.816406 677.628906 C 680.121094 677.765625 679.414062 677.835938 678.707031 677.835938 Z M 678.707031 677.835938 " fill-opacity="1" fill-rule="nonzero"/><path fill="#8de06a" d="M 130.464844 677.835938 C 129.757812 677.835938 129.054688 677.765625 128.359375 677.628906 C 127.664062 677.488281 126.988281 677.285156 126.332031 677.011719 C 125.675781 676.742188 125.054688 676.40625 124.464844 676.015625 C 123.875 675.621094 123.328125 675.171875 122.824219 674.671875 C 122.324219 674.167969 121.875 673.621094 121.480469 673.03125 C 121.085938 672.441406 120.753906 671.820312 120.484375 671.164062 C 120.210938 670.507812 120.007812 669.832031 119.867188 669.136719 C 119.730469 668.441406 119.660156 667.738281 119.660156 667.03125 L 119.660156 462.84375 C 119.660156 462.136719 119.730469 461.433594 119.867188 460.734375 C 120.007812 460.039062 120.210938 459.363281 120.484375 458.710938 C 120.753906 458.054688 121.085938 457.429688 121.480469 456.839844 C 121.875 456.25 122.324219 455.707031 122.824219 455.203125 C 123.328125 454.703125 123.875 454.253906 124.464844 453.859375 C 125.054688 453.464844 125.675781 453.132812 126.332031 452.859375 C 126.988281 452.589844 127.664062 452.386719 128.359375 452.246094 C 129.054688 452.109375 129.757812 452.039062 130.464844 452.039062 C 131.175781 452.039062 131.878906 452.109375 132.574219 452.246094 C 133.269531 452.386719 133.945312 452.589844 134.601562 452.859375 C 135.257812 453.132812 135.878906 453.464844 136.46875 453.859375 C 137.058594 454.253906 137.605469 454.703125 138.109375 455.203125 C 138.609375 455.707031 139.058594 456.25 139.453125 456.839844 C 139.84375 457.429688 140.179688 458.054688 140.449219 458.710938 C 140.722656 459.363281 140.925781 460.039062 141.066406 460.734375 C 141.203125 461.433594 141.273438 462.136719 141.273438 462.84375 L 141.273438 667.011719 C 141.273438 667.722656 141.207031 668.425781 141.070312 669.121094 C 140.933594 669.820312 140.726562 670.496094 140.457031 671.152344 C 140.1875 671.808594 139.855469 672.433594 139.460938 673.023438 C 139.066406 673.617188 138.617188 674.164062 138.117188 674.664062 C 137.613281 675.167969 137.066406 675.617188 136.476562 676.011719 C 135.886719 676.40625 135.261719 676.742188 134.605469 677.011719 C 133.949219 677.285156 133.273438 677.488281 132.578125 677.628906 C 131.878906 677.765625 131.175781 677.835938 130.464844 677.835938 Z M 130.464844 677.835938 " fill-opacity="1" fill-rule="nonzero"/><g clip-path="url(#id1)"><path fill="#c86e59" d="M 20.273438 667.011719 L 788.960938 667.011719 L 788.960938 788.960938 L 20.273438 788.960938 Z M 20.273438 667.011719 " fill-opacity="1" fill-rule="nonzero"/></g><path fill="#19a690" d="M 441.101562 543.738281 L 404.585938 543.738281 C 404.585938 542.542969 404.617188 541.347656 404.675781 540.152344 C 404.734375 538.957031 404.820312 537.761719 404.9375 536.570312 C 405.054688 535.382812 405.203125 534.195312 405.378906 533.011719 C 405.554688 531.828125 405.757812 530.648438 405.992188 529.472656 C 406.226562 528.300781 406.488281 527.132812 406.777344 525.972656 C 407.066406 524.8125 407.386719 523.660156 407.734375 522.511719 C 408.082031 521.367188 408.457031 520.230469 408.859375 519.105469 C 409.261719 517.980469 409.695312 516.863281 410.152344 515.757812 C 410.609375 514.652344 411.09375 513.558594 411.605469 512.476562 C 412.117188 511.394531 412.65625 510.324219 413.21875 509.269531 C 413.785156 508.214844 414.375 507.175781 414.988281 506.148438 C 415.605469 505.121094 416.246094 504.109375 416.910156 503.117188 C 417.574219 502.121094 418.261719 501.140625 418.976562 500.179688 C 419.6875 499.21875 420.425781 498.277344 421.183594 497.351562 C 421.941406 496.425781 422.722656 495.519531 423.527344 494.632812 C 424.332031 493.746094 425.15625 492.882812 426.003906 492.035156 C 426.847656 491.1875 427.714844 490.363281 428.601562 489.558594 C 429.488281 488.757812 430.394531 487.976562 431.320312 487.214844 C 432.246094 486.457031 433.1875 485.722656 434.148438 485.007812 C 435.109375 484.296875 436.089844 483.605469 437.082031 482.941406 C 438.078125 482.277344 439.089844 481.636719 440.117188 481.019531 C 441.140625 480.40625 442.183594 479.816406 443.238281 479.253906 C 444.292969 478.6875 445.363281 478.152344 446.445312 477.640625 C 447.527344 477.128906 448.621094 476.640625 449.726562 476.183594 C 450.832031 475.726562 451.945312 475.296875 453.074219 474.894531 C 454.199219 474.488281 455.335938 474.113281 456.480469 473.765625 C 457.625 473.417969 458.777344 473.101562 459.941406 472.808594 C 461.101562 472.519531 462.269531 472.257812 463.441406 472.023438 C 464.617188 471.789062 465.792969 471.585938 466.976562 471.410156 C 468.160156 471.234375 469.347656 471.085938 470.539062 470.96875 C 471.730469 470.851562 472.925781 470.765625 474.121094 470.707031 C 475.3125 470.648438 476.511719 470.617188 477.707031 470.617188 L 514.222656 470.617188 C 514.222656 471.816406 514.195312 473.011719 514.136719 474.207031 C 514.078125 475.402344 513.988281 476.59375 513.871094 477.785156 C 513.753906 478.976562 513.609375 480.164062 513.433594 481.347656 C 513.257812 482.53125 513.050781 483.710938 512.820312 484.882812 C 512.585938 486.058594 512.324219 487.222656 512.03125 488.386719 C 511.742188 489.546875 511.421875 490.699219 511.074219 491.84375 C 510.726562 492.988281 510.351562 494.125 509.949219 495.253906 C 509.546875 496.378906 509.117188 497.496094 508.65625 498.601562 C 508.199219 499.707031 507.714844 500.800781 507.203125 501.882812 C 506.691406 502.964844 506.152344 504.03125 505.589844 505.085938 C 505.027344 506.144531 504.4375 507.183594 503.820312 508.210938 C 503.207031 509.238281 502.566406 510.246094 501.902344 511.242188 C 501.234375 512.238281 500.546875 513.214844 499.835938 514.175781 C 499.121094 515.136719 498.386719 516.082031 497.625 517.003906 C 496.867188 517.929688 496.085938 518.835938 495.28125 519.722656 C 494.480469 520.609375 493.652344 521.476562 492.808594 522.324219 C 491.960938 523.167969 491.09375 523.992188 490.207031 524.796875 C 489.320312 525.601562 488.414062 526.382812 487.492188 527.140625 C 486.566406 527.902344 485.621094 528.636719 484.660156 529.347656 C 483.699219 530.0625 482.722656 530.75 481.726562 531.417969 C 480.730469 532.082031 479.722656 532.722656 478.695312 533.335938 C 477.667969 533.953125 476.628906 534.542969 475.570312 535.105469 C 474.515625 535.667969 473.449219 536.207031 472.367188 536.71875 C 471.285156 537.230469 470.191406 537.714844 469.085938 538.171875 C 467.980469 538.632812 466.863281 539.0625 465.738281 539.464844 C 464.609375 539.867188 463.472656 540.242188 462.328125 540.589844 C 461.183594 540.9375 460.03125 541.257812 458.871094 541.546875 C 457.710938 541.839844 456.542969 542.101562 455.367188 542.335938 C 454.195312 542.566406 453.015625 542.773438 451.832031 542.949219 C 450.648438 543.125 449.460938 543.269531 448.269531 543.386719 C 447.078125 543.503906 445.886719 543.59375 444.691406 543.652344 C 443.496094 543.710938 442.300781 543.738281 441.101562 543.738281 Z M 441.101562 543.738281 " fill-opacity="1" fill-rule="nonzero"/><path fill="#19a690" d="M 367.453125 543.738281 L 403.96875 543.738281 C 403.96875 542.542969 403.9375 541.347656 403.878906 540.152344 C 403.820312 538.957031 403.734375 537.761719 403.617188 536.570312 C 403.5 535.382812 403.351562 534.195312 403.175781 533.011719 C 403 531.828125 402.796875 530.648438 402.5625 529.472656 C 402.332031 528.300781 402.066406 527.132812 401.777344 525.972656 C 401.488281 524.8125 401.167969 523.660156 400.820312 522.511719 C 400.472656 521.367188 400.097656 520.230469 399.695312 519.105469 C 399.292969 517.980469 398.859375 516.863281 398.402344 515.757812 C 397.945312 514.652344 397.460938 513.558594 396.949219 512.476562 C 396.4375 511.394531 395.898438 510.324219 395.335938 509.269531 C 394.769531 508.214844 394.179688 507.175781 393.566406 506.148438 C 392.949219 505.121094 392.308594 504.109375 391.644531 503.117188 C 390.980469 502.121094 390.292969 501.140625 389.578125 500.179688 C 388.867188 499.21875 388.128906 498.277344 387.371094 497.351562 C 386.613281 496.425781 385.832031 495.519531 385.027344 494.632812 C 384.222656 493.746094 383.398438 492.882812 382.550781 492.035156 C 381.707031 491.1875 380.839844 490.363281 379.953125 489.558594 C 379.066406 488.757812 378.160156 487.976562 377.234375 487.214844 C 376.308594 486.457031 375.367188 485.722656 374.40625 485.007812 C 373.445312 484.296875 372.464844 483.605469 371.472656 482.941406 C 370.476562 482.277344 369.464844 481.636719 368.441406 481.019531 C 367.414062 480.40625 366.371094 479.816406 365.316406 479.253906 C 364.261719 478.6875 363.191406 478.152344 362.109375 477.640625 C 361.027344 477.128906 359.9375 476.640625 358.828125 476.183594 C 357.722656 475.726562 356.609375 475.296875 355.480469 474.894531 C 354.355469 474.488281 353.21875 474.113281 352.074219 473.765625 C 350.929688 473.417969 349.777344 473.101562 348.613281 472.808594 C 347.453125 472.519531 346.285156 472.257812 345.113281 472.023438 C 343.9375 471.789062 342.761719 471.585938 341.578125 471.410156 C 340.394531 471.234375 339.207031 471.085938 338.015625 470.96875 C 336.824219 470.851562 335.632812 470.765625 334.4375 470.707031 C 333.242188 470.648438 332.042969 470.617188 330.847656 470.617188 L 294.332031 470.617188 C 294.332031 471.816406 294.359375 473.011719 294.417969 474.207031 C 294.476562 475.402344 294.566406 476.59375 294.683594 477.785156 C 294.800781 478.976562 294.945312 480.164062 295.121094 481.347656 C 295.296875 482.53125 295.503906 483.710938 295.734375 484.882812 C 295.96875 486.058594 296.230469 487.222656 296.523438 488.386719 C 296.8125 489.546875 297.132812 490.699219 297.480469 491.84375 C 297.828125 492.988281 298.203125 494.125 298.605469 495.253906 C 299.007812 496.378906 299.4375 497.496094 299.898438 498.601562 C 300.355469 499.707031 300.839844 500.800781 301.351562 501.882812 C 301.863281 502.964844 302.402344 504.03125 302.964844 505.085938 C 303.527344 506.144531 304.117188 507.183594 304.734375 508.210938 C 305.347656 509.238281 305.988281 510.246094 306.652344 511.242188 C 307.320312 512.238281 308.007812 513.214844 308.71875 514.175781 C 309.433594 515.136719 310.167969 516.082031 310.929688 517.003906 C 311.6875 517.929688 312.46875 518.835938 313.273438 519.722656 C 314.078125 520.609375 314.902344 521.476562 315.746094 522.324219 C 316.59375 523.167969 317.460938 523.992188 318.347656 524.796875 C 319.234375 525.601562 320.140625 526.382812 321.0625 527.140625 C 321.988281 527.902344 322.933594 528.636719 323.894531 529.347656 C 324.855469 530.0625 325.832031 530.75 326.828125 531.417969 C 327.824219 532.082031 328.832031 532.722656 329.859375 533.335938 C 330.886719 533.953125 331.925781 534.542969 332.984375 535.105469 C 334.039062 535.667969 335.105469 536.207031 336.1875 536.71875 C 337.269531 537.230469 338.363281 537.714844 339.46875 538.171875 C 340.574219 538.632812 341.691406 539.0625 342.816406 539.464844 C 343.945312 539.867188 345.082031 540.242188 346.226562 540.589844 C 347.371094 540.9375 348.523438 541.257812 349.683594 541.546875 C 350.84375 541.839844 352.011719 542.101562 353.1875 542.335938 C 354.359375 542.566406 355.539062 542.773438 356.722656 542.949219 C 357.90625 543.125 359.09375 543.269531 360.285156 543.386719 C 361.476562 543.503906 362.667969 543.59375 363.863281 543.652344 C 365.058594 543.710938 366.253906 543.738281 367.453125 543.738281 Z M 367.453125 543.738281 " fill-opacity="1" fill-rule="nonzero"/><path fill="#19a690" d="M 404.894531 462.839844 L 431.753906 436.078125 C 432.625 435.210938 433.457031 434.308594 434.253906 433.375 C 435.050781 432.441406 435.808594 431.476562 436.527344 430.480469 C 437.246094 429.488281 437.921875 428.464844 438.558594 427.414062 C 439.195312 426.363281 439.789062 425.289062 440.335938 424.191406 C 440.886719 423.09375 441.390625 421.976562 441.847656 420.835938 C 442.308594 419.699219 442.71875 418.542969 443.085938 417.371094 C 443.449219 416.199219 443.765625 415.011719 444.035156 413.816406 C 444.304688 412.617188 444.527344 411.410156 444.699219 410.195312 C 444.871094 408.980469 444.992188 407.757812 445.066406 406.535156 C 445.140625 405.308594 445.164062 404.082031 445.136719 402.855469 C 445.109375 401.625 445.035156 400.402344 444.910156 399.179688 C 444.785156 397.960938 444.609375 396.746094 444.386719 395.539062 C 444.164062 394.332031 443.890625 393.136719 443.574219 391.949219 C 443.253906 390.765625 442.886719 389.59375 442.46875 388.4375 C 442.054688 387.28125 441.59375 386.144531 441.089844 385.027344 C 440.582031 383.910156 440.03125 382.8125 439.4375 381.738281 L 404.585938 318.929688 L 369.734375 381.738281 C 369.140625 382.8125 368.589844 383.910156 368.082031 385.027344 C 367.578125 386.144531 367.117188 387.28125 366.703125 388.4375 C 366.289062 389.59375 365.917969 390.765625 365.601562 391.949219 C 365.28125 393.136719 365.007812 394.332031 364.785156 395.539062 C 364.5625 396.746094 364.386719 397.960938 364.261719 399.179688 C 364.136719 400.402344 364.0625 401.628906 364.035156 402.855469 C 364.011719 404.082031 364.035156 405.308594 364.105469 406.535156 C 364.179688 407.757812 364.300781 408.980469 364.472656 410.195312 C 364.644531 411.410156 364.867188 412.617188 365.136719 413.816406 C 365.40625 415.011719 365.722656 416.199219 366.089844 417.371094 C 366.453125 418.542969 366.863281 419.699219 367.324219 420.835938 C 367.78125 421.976562 368.285156 423.09375 368.835938 424.191406 C 369.382812 425.289062 369.976562 426.363281 370.613281 427.414062 C 371.25 428.464844 371.925781 429.488281 372.644531 430.480469 C 373.363281 431.476562 374.121094 432.441406 374.917969 433.375 C 375.714844 434.308594 376.546875 435.210938 377.417969 436.078125 L 404.277344 462.832031 Z M 404.894531 462.839844 " fill-opacity="1" fill-rule="nonzero"/><path fill="#19a690" d="M 715.53125 543.738281 L 679.015625 543.738281 C 679.015625 542.542969 679.042969 541.347656 679.101562 540.152344 C 679.160156 538.957031 679.25 537.761719 679.367188 536.570312 C 679.484375 535.382812 679.628906 534.195312 679.804688 533.011719 C 679.980469 531.828125 680.1875 530.648438 680.417969 529.472656 C 680.652344 528.300781 680.914062 527.132812 681.207031 525.972656 C 681.496094 524.8125 681.816406 523.660156 682.164062 522.511719 C 682.511719 521.367188 682.886719 520.230469 683.289062 519.105469 C 683.691406 517.980469 684.121094 516.863281 684.582031 515.757812 C 685.039062 514.652344 685.523438 513.558594 686.035156 512.476562 C 686.546875 511.394531 687.085938 510.324219 687.648438 509.269531 C 688.210938 508.214844 688.800781 507.175781 689.417969 506.148438 C 690.03125 505.121094 690.671875 504.109375 691.335938 503.117188 C 692.003906 502.121094 692.691406 501.140625 693.402344 500.179688 C 694.117188 499.21875 694.851562 498.277344 695.613281 497.351562 C 696.371094 496.425781 697.152344 495.519531 697.957031 494.632812 C 698.761719 493.746094 699.585938 492.882812 700.429688 492.035156 C 701.277344 491.1875 702.144531 490.363281 703.03125 489.558594 C 703.917969 488.757812 704.824219 487.976562 705.746094 487.214844 C 706.671875 486.457031 707.617188 485.722656 708.578125 485.007812 C 709.539062 484.296875 710.515625 483.605469 711.511719 482.941406 C 712.507812 482.277344 713.515625 481.636719 714.542969 481.019531 C 715.570312 480.40625 716.609375 479.816406 717.667969 479.253906 C 718.722656 478.6875 719.789062 478.152344 720.871094 477.640625 C 721.953125 477.128906 723.046875 476.640625 724.152344 476.183594 C 725.257812 475.726562 726.375 475.296875 727.5 474.894531 C 728.628906 474.488281 729.765625 474.113281 730.910156 473.765625 C 732.054688 473.417969 733.207031 473.101562 734.367188 472.808594 C 735.527344 472.519531 736.695312 472.257812 737.871094 472.023438 C 739.042969 471.789062 740.222656 471.585938 741.40625 471.410156 C 742.589844 471.234375 743.777344 471.085938 744.96875 470.96875 C 746.160156 470.851562 747.351562 470.765625 748.546875 470.707031 C 749.742188 470.648438 750.9375 470.617188 752.136719 470.617188 L 788.652344 470.617188 C 788.652344 471.816406 788.621094 473.011719 788.5625 474.207031 C 788.503906 475.402344 788.417969 476.59375 788.300781 477.785156 C 788.183594 478.976562 788.035156 480.164062 787.859375 481.347656 C 787.683594 482.53125 787.480469 483.710938 787.246094 484.882812 C 787.015625 486.058594 786.75 487.222656 786.460938 488.386719 C 786.171875 489.546875 785.851562 490.699219 785.503906 491.84375 C 785.15625 492.988281 784.78125 494.125 784.378906 495.253906 C 783.976562 496.378906 783.542969 497.496094 783.085938 498.601562 C 782.628906 499.707031 782.144531 500.800781 781.632812 501.882812 C 781.121094 502.964844 780.582031 504.03125 780.019531 505.085938 C 779.453125 506.144531 778.863281 507.183594 778.25 508.210938 C 777.632812 509.238281 776.992188 510.246094 776.328125 511.242188 C 775.664062 512.238281 774.976562 513.214844 774.261719 514.175781 C 773.550781 515.136719 772.8125 516.082031 772.054688 517.003906 C 771.296875 517.929688 770.515625 518.835938 769.710938 519.722656 C 768.90625 520.609375 768.082031 521.476562 767.234375 522.324219 C 766.390625 523.167969 765.523438 523.992188 764.636719 524.796875 C 763.75 525.601562 762.84375 526.382812 761.917969 527.140625 C 760.992188 527.902344 760.050781 528.636719 759.089844 529.347656 C 758.128906 530.0625 757.148438 530.75 756.15625 531.417969 C 755.160156 532.082031 754.148438 532.722656 753.125 533.335938 C 752.097656 533.953125 751.054688 534.542969 750 535.105469 C 748.945312 535.667969 747.875 536.207031 746.792969 536.71875 C 745.714844 537.230469 744.621094 537.714844 743.515625 538.171875 C 742.40625 538.632812 741.292969 539.0625 740.164062 539.464844 C 739.039062 539.867188 737.902344 540.242188 736.757812 540.589844 C 735.613281 540.9375 734.460938 541.257812 733.296875 541.546875 C 732.136719 541.839844 730.96875 542.101562 729.796875 542.335938 C 728.621094 542.566406 727.445312 542.773438 726.261719 542.949219 C 725.078125 543.125 723.890625 543.269531 722.699219 543.386719 C 721.507812 543.503906 720.316406 543.59375 719.121094 543.652344 C 717.925781 543.710938 716.726562 543.738281 715.53125 543.738281 Z M 715.53125 543.738281 " fill-opacity="1" fill-rule="nonzero"/><path fill="#19a690" d="M 641.878906 543.738281 L 678.398438 543.738281 C 678.398438 542.542969 678.367188 541.347656 678.308594 540.152344 C 678.25 538.957031 678.164062 537.761719 678.046875 536.574219 C 677.929688 535.382812 677.78125 534.195312 677.605469 533.011719 C 677.433594 531.828125 677.226562 530.648438 676.992188 529.476562 C 676.761719 528.300781 676.5 527.132812 676.207031 525.972656 C 675.917969 524.8125 675.597656 523.660156 675.25 522.515625 C 674.902344 521.371094 674.527344 520.234375 674.125 519.105469 C 673.722656 517.980469 673.292969 516.863281 672.832031 515.757812 C 672.375 514.652344 671.890625 513.558594 671.378906 512.476562 C 670.867188 511.394531 670.328125 510.328125 669.765625 509.269531 C 669.203125 508.214844 668.613281 507.175781 667.996094 506.148438 C 667.382812 505.121094 666.742188 504.113281 666.074219 503.117188 C 665.410156 502.121094 664.722656 501.144531 664.007812 500.183594 C 663.296875 499.222656 662.558594 498.277344 661.800781 497.351562 C 661.042969 496.425781 660.261719 495.523438 659.457031 494.636719 C 658.652344 493.75 657.828125 492.882812 656.980469 492.035156 C 656.136719 491.191406 655.269531 490.363281 654.382812 489.5625 C 653.496094 488.757812 652.589844 487.976562 651.664062 487.214844 C 650.738281 486.457031 649.792969 485.722656 648.832031 485.007812 C 647.871094 484.296875 646.894531 483.605469 645.898438 482.941406 C 644.902344 482.277344 643.890625 481.636719 642.867188 481.023438 C 641.839844 480.40625 640.796875 479.816406 639.742188 479.253906 C 638.6875 478.6875 637.617188 478.152344 636.535156 477.640625 C 635.453125 477.128906 634.359375 476.644531 633.253906 476.183594 C 632.148438 475.726562 631.03125 475.296875 629.902344 474.894531 C 628.777344 474.488281 627.640625 474.113281 626.496094 473.765625 C 625.351562 473.417969 624.195312 473.101562 623.035156 472.808594 C 621.875 472.519531 620.707031 472.257812 619.53125 472.023438 C 618.359375 471.789062 617.179688 471.585938 615.996094 471.410156 C 614.8125 471.234375 613.625 471.085938 612.433594 470.96875 C 611.242188 470.851562 610.046875 470.765625 608.851562 470.707031 C 607.65625 470.648438 606.460938 470.617188 605.265625 470.617188 L 568.757812 470.617188 C 568.757812 471.816406 568.789062 473.011719 568.847656 474.207031 C 568.90625 475.402344 568.992188 476.59375 569.109375 477.785156 C 569.226562 478.976562 569.375 480.164062 569.550781 481.347656 C 569.726562 482.53125 569.929688 483.710938 570.164062 484.882812 C 570.398438 486.058594 570.660156 487.222656 570.949219 488.386719 C 571.242188 489.546875 571.558594 490.699219 571.90625 491.84375 C 572.253906 492.988281 572.628906 494.125 573.035156 495.253906 C 573.4375 496.378906 573.867188 497.496094 574.324219 498.601562 C 574.78125 499.707031 575.269531 500.800781 575.78125 501.882812 C 576.289062 502.964844 576.828125 504.03125 577.394531 505.085938 C 577.957031 506.144531 578.546875 507.183594 579.160156 508.210938 C 579.777344 509.238281 580.417969 510.246094 581.082031 511.242188 C 581.746094 512.238281 582.4375 513.214844 583.148438 514.175781 C 583.863281 515.136719 584.597656 516.082031 585.355469 517.003906 C 586.117188 517.929688 586.898438 518.835938 587.699219 519.722656 C 588.503906 520.609375 589.328125 521.476562 590.175781 522.324219 C 591.023438 523.167969 591.886719 523.992188 592.773438 524.796875 C 593.660156 525.601562 594.566406 526.382812 595.492188 527.140625 C 596.417969 527.902344 597.359375 528.636719 598.320312 529.347656 C 599.28125 530.0625 600.261719 530.75 601.257812 531.417969 C 602.25 532.082031 603.261719 532.722656 604.289062 533.335938 C 605.316406 533.953125 606.355469 534.542969 607.410156 535.105469 C 608.464844 535.667969 609.535156 536.207031 610.617188 536.71875 C 611.699219 537.230469 612.792969 537.714844 613.898438 538.171875 C 615.003906 538.632812 616.121094 539.0625 617.246094 539.464844 C 618.371094 539.867188 619.507812 540.242188 620.652344 540.589844 C 621.800781 540.9375 622.953125 541.257812 624.113281 541.546875 C 625.273438 541.839844 626.441406 542.101562 627.613281 542.335938 C 628.789062 542.566406 629.96875 542.773438 631.152344 542.949219 C 632.335938 543.125 633.523438 543.269531 634.710938 543.386719 C 635.902344 543.503906 637.097656 543.59375 638.292969 543.652344 C 639.488281 543.710938 640.683594 543.738281 641.878906 543.738281 Z M 641.878906 543.738281 " fill-opacity="1" fill-rule="nonzero"/><path fill="#19a690" d="M 679.324219 462.839844 L 706.183594 436.082031 C 707.050781 435.214844 707.886719 434.316406 708.683594 433.382812 C 709.480469 432.449219 710.238281 431.484375 710.957031 430.488281 C 711.675781 429.492188 712.351562 428.46875 712.988281 427.417969 C 713.625 426.371094 714.214844 425.296875 714.765625 424.199219 C 715.3125 423.101562 715.816406 421.980469 716.277344 420.84375 C 716.734375 419.703125 717.148438 418.546875 717.511719 417.375 C 717.878906 416.203125 718.195312 415.019531 718.464844 413.820312 C 718.734375 412.625 718.953125 411.417969 719.125 410.203125 C 719.296875 408.984375 719.421875 407.765625 719.492188 406.539062 C 719.566406 405.3125 719.589844 404.089844 719.566406 402.859375 C 719.539062 401.632812 719.464844 400.410156 719.339844 399.1875 C 719.214844 397.964844 719.039062 396.75 718.816406 395.542969 C 718.59375 394.335938 718.320312 393.140625 718 391.957031 C 717.679688 390.769531 717.3125 389.601562 716.898438 388.445312 C 716.484375 387.289062 716.023438 386.152344 715.515625 385.035156 C 715.011719 383.914062 714.460938 382.820312 713.863281 381.746094 L 679.015625 318.960938 L 644.164062 381.738281 C 643.570312 382.8125 643.015625 383.910156 642.507812 385.027344 C 642 386.148438 641.539062 387.285156 641.125 388.441406 C 640.710938 389.597656 640.34375 390.769531 640.019531 391.953125 C 639.699219 393.140625 639.429688 394.335938 639.203125 395.546875 C 638.980469 396.753906 638.804688 397.96875 638.679688 399.191406 C 638.554688 400.414062 638.480469 401.636719 638.453125 402.867188 C 638.425781 404.09375 638.449219 405.320312 638.523438 406.546875 C 638.597656 407.773438 638.71875 408.996094 638.890625 410.210938 C 639.0625 411.429688 639.285156 412.636719 639.554688 413.835938 C 639.824219 415.03125 640.140625 416.21875 640.503906 417.390625 C 640.871094 418.5625 641.285156 419.71875 641.742188 420.859375 C 642.203125 422 642.707031 423.117188 643.253906 424.21875 C 643.804688 425.316406 644.398438 426.390625 645.035156 427.441406 C 645.671875 428.492188 646.347656 429.515625 647.070312 430.511719 C 647.789062 431.507812 648.546875 432.472656 649.34375 433.40625 C 650.140625 434.339844 650.976562 435.242188 651.847656 436.109375 L 678.707031 462.863281 Z M 679.324219 462.839844 " fill-opacity="1" fill-rule="nonzero"/><g clip-path="url(#id2)"><path fill="#19a690" d="M 93.640625 543.738281 L 130.15625 543.738281 C 130.15625 542.542969 130.128906 541.347656 130.070312 540.152344 C 130.011719 538.957031 129.921875 537.761719 129.804688 536.570312 C 129.6875 535.382812 129.542969 534.195312 129.367188 533.011719 C 129.191406 531.828125 128.988281 530.648438 128.753906 529.472656 C 128.519531 528.300781 128.257812 527.132812 127.964844 525.972656 C 127.675781 524.8125 127.355469 523.660156 127.007812 522.511719 C 126.660156 521.367188 126.285156 520.230469 125.882812 519.105469 C 125.480469 517.980469 125.050781 516.863281 124.59375 515.757812 C 124.132812 514.652344 123.648438 513.558594 123.136719 512.476562 C 122.625 511.394531 122.089844 510.324219 121.523438 509.269531 C 120.960938 508.214844 120.371094 507.175781 119.753906 506.148438 C 119.140625 505.121094 118.5 504.109375 117.835938 503.117188 C 117.171875 502.121094 116.480469 501.140625 115.769531 500.179688 C 115.054688 499.21875 114.320312 498.277344 113.558594 497.351562 C 112.800781 496.425781 112.019531 495.519531 111.214844 494.632812 C 110.414062 493.746094 109.585938 492.882812 108.742188 492.035156 C 107.894531 491.1875 107.027344 490.363281 106.140625 489.558594 C 105.253906 488.757812 104.347656 487.976562 103.425781 487.214844 C 102.5 486.457031 101.554688 485.722656 100.59375 485.007812 C 99.632812 484.296875 98.65625 483.605469 97.660156 482.941406 C 96.664062 482.277344 95.65625 481.636719 94.628906 481.019531 C 93.601562 480.40625 92.5625 479.816406 91.507812 479.253906 C 90.449219 478.6875 89.382812 478.152344 88.300781 477.640625 C 87.21875 477.128906 86.125 476.640625 85.019531 476.183594 C 83.914062 475.726562 82.796875 475.296875 81.671875 474.894531 C 80.542969 474.488281 79.40625 474.113281 78.261719 473.765625 C 77.117188 473.417969 75.964844 473.101562 74.804688 472.808594 C 73.644531 472.519531 72.476562 472.257812 71.300781 472.023438 C 70.128906 471.789062 68.949219 471.585938 67.765625 471.410156 C 66.582031 471.234375 65.394531 471.085938 64.203125 470.96875 C 63.011719 470.851562 61.820312 470.765625 60.625 470.707031 C 59.429688 470.648438 58.234375 470.617188 57.039062 470.617188 L 20.519531 470.617188 C 20.519531 471.816406 20.550781 473.011719 20.609375 474.207031 C 20.667969 475.402344 20.753906 476.59375 20.871094 477.785156 C 20.988281 478.976562 21.136719 480.164062 21.3125 481.347656 C 21.488281 482.53125 21.691406 483.710938 21.925781 484.882812 C 22.160156 486.058594 22.421875 487.222656 22.710938 488.386719 C 23.003906 489.546875 23.320312 490.699219 23.667969 491.84375 C 24.015625 492.988281 24.390625 494.125 24.792969 495.253906 C 25.199219 496.378906 25.628906 497.496094 26.085938 498.601562 C 26.542969 499.707031 27.027344 500.800781 27.539062 501.882812 C 28.050781 502.964844 28.589844 504.03125 29.152344 505.085938 C 29.71875 506.144531 30.308594 507.183594 30.921875 508.210938 C 31.539062 509.238281 32.179688 510.246094 32.84375 511.242188 C 33.507812 512.238281 34.195312 513.214844 34.910156 514.175781 C 35.621094 515.136719 36.359375 516.082031 37.117188 517.003906 C 37.875 517.929688 38.660156 518.835938 39.460938 519.722656 C 40.265625 520.609375 41.089844 521.476562 41.9375 522.324219 C 42.78125 523.167969 43.648438 523.992188 44.535156 524.796875 C 45.421875 525.601562 46.328125 526.382812 47.253906 527.140625 C 48.179688 527.902344 49.121094 528.636719 50.082031 529.347656 C 51.042969 530.0625 52.023438 530.75 53.015625 531.417969 C 54.011719 532.082031 55.023438 532.722656 56.050781 533.335938 C 57.074219 533.953125 58.117188 534.542969 59.171875 535.105469 C 60.226562 535.667969 61.296875 536.207031 62.378906 536.71875 C 63.460938 537.230469 64.554688 537.714844 65.660156 538.171875 C 66.765625 538.632812 67.878906 539.0625 69.007812 539.464844 C 70.132812 539.867188 71.269531 540.242188 72.414062 540.589844 C 73.558594 540.9375 74.714844 541.257812 75.875 541.546875 C 77.035156 541.839844 78.203125 542.101562 79.375 542.335938 C 80.550781 542.566406 81.726562 542.773438 82.910156 542.949219 C 84.09375 543.125 85.28125 543.269531 86.472656 543.386719 C 87.664062 543.503906 88.859375 543.59375 90.054688 543.652344 C 91.25 543.710938 92.445312 543.738281 93.640625 543.738281 Z M 93.640625 543.738281 " fill-opacity="1" fill-rule="nonzero"/></g><path fill="#19a690" d="M 167.292969 543.738281 L 130.777344 543.738281 C 130.773438 542.542969 130.804688 541.347656 130.863281 540.152344 C 130.921875 538.957031 131.007812 537.761719 131.125 536.574219 C 131.242188 535.382812 131.390625 534.195312 131.566406 533.011719 C 131.742188 531.828125 131.945312 530.648438 132.179688 529.476562 C 132.410156 528.300781 132.675781 527.132812 132.964844 525.972656 C 133.253906 524.8125 133.574219 523.660156 133.921875 522.515625 C 134.269531 521.371094 134.644531 520.234375 135.046875 519.105469 C 135.449219 517.980469 135.878906 516.863281 136.339844 515.757812 C 136.796875 514.652344 137.28125 513.558594 137.792969 512.476562 C 138.304688 511.394531 138.84375 510.328125 139.40625 509.269531 C 139.972656 508.214844 140.5625 507.175781 141.175781 506.148438 C 141.792969 505.121094 142.429688 504.113281 143.097656 503.117188 C 143.761719 502.121094 144.449219 501.144531 145.164062 500.183594 C 145.875 499.222656 146.613281 498.277344 147.371094 497.351562 C 148.128906 496.425781 148.914062 495.523438 149.714844 494.636719 C 150.519531 493.75 151.34375 492.882812 152.191406 492.035156 C 153.039062 491.191406 153.902344 490.363281 154.792969 489.5625 C 155.679688 488.757812 156.582031 487.976562 157.507812 487.214844 C 158.433594 486.457031 159.378906 485.722656 160.339844 485.007812 C 161.300781 484.296875 162.277344 483.605469 163.273438 482.941406 C 164.269531 482.277344 165.28125 481.636719 166.308594 481.023438 C 167.332031 480.40625 168.375 479.816406 169.429688 479.253906 C 170.484375 478.6875 171.554688 478.152344 172.636719 477.640625 C 173.71875 477.128906 174.8125 476.644531 175.917969 476.183594 C 177.023438 475.726562 178.140625 475.296875 179.269531 474.894531 C 180.394531 474.488281 181.53125 474.113281 182.675781 473.765625 C 183.824219 473.417969 184.976562 473.101562 186.136719 472.808594 C 187.296875 472.519531 188.464844 472.257812 189.640625 472.023438 C 190.8125 471.789062 191.992188 471.585938 193.175781 471.410156 C 194.359375 471.234375 195.546875 471.085938 196.738281 470.96875 C 197.929688 470.851562 199.125 470.765625 200.320312 470.707031 C 201.515625 470.648438 202.710938 470.617188 203.910156 470.617188 L 240.425781 470.617188 C 240.425781 471.816406 240.398438 473.011719 240.339844 474.207031 C 240.28125 475.402344 240.191406 476.59375 240.074219 477.785156 C 239.957031 478.976562 239.8125 480.164062 239.636719 481.347656 C 239.460938 482.53125 239.257812 483.710938 239.023438 484.882812 C 238.789062 486.054688 238.527344 487.222656 238.238281 488.382812 C 237.945312 489.546875 237.625 490.699219 237.28125 491.84375 C 236.933594 492.988281 236.558594 494.125 236.152344 495.25 C 235.75 496.378906 235.320312 497.492188 234.863281 498.601562 C 234.40625 499.707031 233.917969 500.800781 233.40625 501.878906 C 232.894531 502.960938 232.359375 504.03125 231.792969 505.085938 C 231.230469 506.140625 230.640625 507.183594 230.023438 508.210938 C 229.410156 509.234375 228.769531 510.246094 228.105469 511.242188 C 227.441406 512.234375 226.75 513.214844 226.039062 514.175781 C 225.324219 515.136719 224.589844 516.078125 223.828125 517.003906 C 223.070312 517.929688 222.289062 518.835938 221.484375 519.722656 C 220.679688 520.609375 219.855469 521.476562 219.011719 522.320312 C 218.164062 523.167969 217.296875 523.992188 216.410156 524.796875 C 215.523438 525.601562 214.617188 526.382812 213.691406 527.140625 C 212.765625 527.898438 211.824219 528.636719 210.863281 529.347656 C 209.902344 530.0625 208.921875 530.75 207.925781 531.414062 C 206.933594 532.082031 205.921875 532.71875 204.894531 533.335938 C 203.867188 533.949219 202.828125 534.539062 201.769531 535.105469 C 200.714844 535.667969 199.644531 536.207031 198.5625 536.71875 C 197.480469 537.230469 196.386719 537.714844 195.28125 538.171875 C 194.175781 538.632812 193.058594 539.0625 191.933594 539.464844 C 190.804688 539.867188 189.667969 540.242188 188.523438 540.589844 C 187.378906 540.9375 186.226562 541.257812 185.0625 541.546875 C 183.902344 541.839844 182.734375 542.101562 181.5625 542.335938 C 180.386719 542.566406 179.207031 542.773438 178.023438 542.949219 C 176.839844 543.125 175.652344 543.269531 174.460938 543.386719 C 173.269531 543.503906 172.078125 543.59375 170.882812 543.652344 C 169.6875 543.710938 168.488281 543.738281 167.292969 543.738281 Z M 167.292969 543.738281 " fill-opacity="1" fill-rule="nonzero"/><path fill="#19a690" d="M 129.847656 462.839844 L 102.988281 436.078125 C 102.121094 435.210938 101.285156 434.308594 100.488281 433.375 C 99.691406 432.441406 98.9375 431.476562 98.21875 430.480469 C 97.5 429.488281 96.820312 428.464844 96.183594 427.414062 C 95.550781 426.363281 94.957031 425.289062 94.40625 424.191406 C 93.859375 423.09375 93.355469 421.976562 92.894531 420.835938 C 92.4375 419.699219 92.023438 418.542969 91.660156 417.371094 C 91.292969 416.199219 90.976562 415.011719 90.707031 413.816406 C 90.4375 412.617188 90.21875 411.410156 90.046875 410.195312 C 89.875 408.980469 89.75 407.757812 89.679688 406.535156 C 89.605469 405.308594 89.582031 404.082031 89.609375 402.855469 C 89.632812 401.625 89.710938 400.402344 89.835938 399.179688 C 89.960938 397.960938 90.132812 396.746094 90.355469 395.539062 C 90.582031 394.332031 90.851562 393.136719 91.171875 391.949219 C 91.492188 390.765625 91.859375 389.59375 92.273438 388.4375 C 92.6875 387.28125 93.148438 386.144531 93.65625 385.027344 C 94.160156 383.910156 94.710938 382.8125 95.308594 381.738281 L 130.15625 318.957031 L 165.007812 381.738281 C 165.601562 382.8125 166.152344 383.910156 166.660156 385.027344 C 167.167969 386.144531 167.628906 387.28125 168.042969 388.4375 C 168.457031 389.59375 168.824219 390.765625 169.144531 391.949219 C 169.464844 393.136719 169.734375 394.332031 169.960938 395.539062 C 170.183594 396.746094 170.355469 397.960938 170.480469 399.179688 C 170.605469 400.402344 170.683594 401.625 170.707031 402.855469 C 170.734375 404.082031 170.710938 405.308594 170.636719 406.535156 C 170.5625 407.757812 170.441406 408.980469 170.269531 410.195312 C 170.097656 411.410156 169.878906 412.617188 169.609375 413.816406 C 169.339844 415.011719 169.019531 416.199219 168.65625 417.371094 C 168.289062 418.542969 167.878906 419.699219 167.421875 420.835938 C 166.960938 421.976562 166.457031 423.09375 165.910156 424.191406 C 165.359375 425.289062 164.765625 426.363281 164.132812 427.414062 C 163.496094 428.464844 162.816406 429.488281 162.097656 430.480469 C 161.378906 431.476562 160.621094 432.441406 159.824219 433.375 C 159.027344 434.308594 158.195312 435.210938 157.328125 436.078125 L 130.464844 462.832031 Z M 129.847656 462.839844 " fill-opacity="1" fill-rule="nonzero"/><g clip-path="url(#id3)"><path fill="#ffda2d" d="M 439.164062 34.105469 L 451.6875 20.210938 L 450.730469 38.878906 C 450.644531 40.515625 450.648438 42.152344 450.734375 43.789062 C 450.824219 45.425781 450.996094 47.054688 451.253906 48.671875 C 451.511719 50.292969 451.855469 51.894531 452.28125 53.476562 C 452.707031 55.058594 453.214844 56.617188 453.800781 58.148438 C 454.390625 59.675781 455.058594 61.171875 455.800781 62.632812 C 456.546875 64.09375 457.367188 65.511719 458.261719 66.886719 C 459.152344 68.261719 460.117188 69.585938 461.148438 70.859375 C 462.179688 72.132812 463.277344 73.347656 464.433594 74.507812 C 465.59375 75.667969 466.8125 76.761719 468.085938 77.792969 C 469.359375 78.828125 470.683594 79.789062 472.058594 80.683594 C 473.433594 81.574219 474.851562 82.394531 476.308594 83.140625 C 477.769531 83.886719 479.265625 84.550781 480.796875 85.140625 C 482.328125 85.730469 483.882812 86.238281 485.464844 86.664062 C 487.050781 87.089844 488.652344 87.429688 490.269531 87.6875 C 491.890625 87.945312 493.515625 88.117188 495.152344 88.207031 C 496.792969 88.292969 498.429688 88.296875 500.066406 88.214844 L 518.730469 87.257812 L 504.855469 99.785156 C 503.640625 100.882812 502.484375 102.042969 501.386719 103.261719 C 500.292969 104.480469 499.261719 105.753906 498.300781 107.082031 C 497.335938 108.410156 496.445312 109.785156 495.628906 111.203125 C 494.808594 112.625 494.066406 114.085938 493.402344 115.582031 C 492.734375 117.082031 492.148438 118.609375 491.644531 120.167969 C 491.136719 121.730469 490.714844 123.308594 490.375 124.914062 C 490.03125 126.519531 489.777344 128.136719 489.605469 129.765625 C 489.433594 131.398438 489.347656 133.03125 489.347656 134.671875 C 489.347656 136.3125 489.433594 137.945312 489.605469 139.578125 C 489.777344 141.207031 490.03125 142.824219 490.375 144.429688 C 490.714844 146.03125 491.136719 147.613281 491.644531 149.175781 C 492.148438 150.734375 492.734375 152.261719 493.402344 153.761719 C 494.066406 155.257812 494.808594 156.71875 495.628906 158.140625 C 496.445312 159.558594 497.335938 160.933594 498.300781 162.261719 C 499.261719 163.589844 500.292969 164.863281 501.386719 166.082031 C 502.484375 167.300781 503.640625 168.460938 504.855469 169.558594 L 518.730469 182.082031 L 500.066406 181.128906 C 498.429688 181.046875 496.792969 181.046875 495.152344 181.136719 C 493.515625 181.222656 491.890625 181.398438 490.269531 181.65625 C 488.652344 181.914062 487.050781 182.253906 485.46875 182.679688 C 483.882812 183.105469 482.328125 183.613281 480.796875 184.203125 C 479.269531 184.789062 477.773438 185.457031 476.3125 186.203125 C 474.851562 186.945312 473.433594 187.765625 472.058594 188.660156 C 470.683594 189.550781 469.359375 190.515625 468.085938 191.546875 C 466.8125 192.578125 465.597656 193.675781 464.4375 194.832031 C 463.277344 195.992188 462.183594 197.207031 461.152344 198.484375 C 460.117188 199.757812 459.15625 201.082031 458.261719 202.453125 C 457.371094 203.828125 456.550781 205.246094 455.804688 206.707031 C 455.058594 208.167969 454.394531 209.664062 453.804688 211.191406 C 453.214844 212.722656 452.707031 214.277344 452.28125 215.863281 C 451.855469 217.445312 451.515625 219.046875 451.257812 220.664062 C 450.996094 222.285156 450.824219 223.910156 450.738281 225.546875 C 450.648438 227.183594 450.644531 228.824219 450.730469 230.460938 L 451.6875 249.125 L 439.164062 235.25 C 438.066406 234.035156 436.90625 232.878906 435.6875 231.78125 C 434.46875 230.6875 433.195312 229.65625 431.867188 228.695312 C 430.539062 227.730469 429.164062 226.839844 427.746094 226.023438 C 426.324219 225.203125 424.863281 224.460938 423.367188 223.796875 C 421.867188 223.128906 420.339844 222.542969 418.78125 222.039062 C 417.21875 221.53125 415.636719 221.109375 414.035156 220.769531 C 412.429688 220.425781 410.8125 220.171875 409.183594 220 C 407.550781 219.828125 405.917969 219.742188 404.277344 219.742188 C 402.636719 219.742188 401.003906 219.828125 399.371094 220 C 397.742188 220.171875 396.125 220.425781 394.519531 220.769531 C 392.917969 221.109375 391.335938 221.53125 389.773438 222.039062 C 388.214844 222.542969 386.6875 223.128906 385.1875 223.796875 C 383.691406 224.460938 382.230469 225.203125 380.808594 226.023438 C 379.390625 226.839844 378.015625 227.730469 376.6875 228.695312 C 375.359375 229.65625 374.085938 230.6875 372.867188 231.78125 C 371.648438 232.878906 370.488281 234.035156 369.390625 235.25 L 356.867188 249.121094 L 357.820312 230.453125 C 357.902344 228.816406 357.902344 227.179688 357.8125 225.542969 C 357.726562 223.90625 357.550781 222.277344 357.292969 220.660156 C 357.035156 219.039062 356.695312 217.4375 356.269531 215.855469 C 355.84375 214.273438 355.335938 212.714844 354.746094 211.1875 C 354.160156 209.65625 353.492188 208.160156 352.746094 206.703125 C 352.003906 205.242188 351.183594 203.824219 350.289062 202.449219 C 349.394531 201.074219 348.433594 199.75 347.402344 198.476562 C 346.371094 197.203125 345.273438 195.988281 344.117188 194.828125 C 342.957031 193.667969 341.738281 192.574219 340.464844 191.542969 C 339.191406 190.507812 337.867188 189.546875 336.492188 188.652344 C 335.121094 187.761719 333.703125 186.941406 332.242188 186.195312 C 330.78125 185.449219 329.285156 184.785156 327.757812 184.195312 C 326.226562 183.605469 324.667969 183.101562 323.085938 182.675781 C 321.503906 182.25 319.902344 181.90625 318.285156 181.648438 C 316.664062 181.390625 315.039062 181.21875 313.402344 181.128906 C 311.761719 181.042969 310.125 181.039062 308.488281 181.125 L 289.824219 182.074219 L 303.691406 169.550781 C 304.910156 168.453125 306.066406 167.292969 307.160156 166.074219 C 308.257812 164.855469 309.285156 163.582031 310.25 162.253906 C 311.210938 160.925781 312.101562 159.554688 312.921875 158.132812 C 313.738281 156.710938 314.480469 155.253906 315.148438 153.753906 C 315.8125 152.257812 316.398438 150.726562 316.90625 149.167969 C 317.410156 147.609375 317.835938 146.027344 318.175781 144.421875 C 318.515625 142.820312 318.773438 141.203125 318.941406 139.570312 C 319.113281 137.941406 319.199219 136.304688 319.199219 134.664062 C 319.199219 133.027344 319.113281 131.390625 318.941406 129.761719 C 318.773438 128.128906 318.515625 126.511719 318.175781 124.910156 C 317.835938 123.304688 317.410156 121.722656 316.90625 120.164062 C 316.398438 118.601562 315.8125 117.074219 315.148438 115.578125 C 314.480469 114.078125 313.738281 112.617188 312.921875 111.199219 C 312.101562 109.777344 311.210938 108.402344 310.25 107.074219 C 309.285156 105.75 308.257812 104.476562 307.160156 103.253906 C 306.066406 102.035156 304.910156 100.878906 303.691406 99.777344 L 289.824219 87.25 L 308.488281 88.207031 C 310.125 88.289062 311.765625 88.289062 313.402344 88.199219 C 315.039062 88.113281 316.664062 87.9375 318.285156 87.679688 C 319.902344 87.421875 321.503906 87.082031 323.085938 86.65625 C 324.671875 86.230469 326.226562 85.722656 327.757812 85.132812 C 329.285156 84.542969 330.78125 83.878906 332.242188 83.132812 C 333.703125 82.386719 335.121094 81.566406 336.492188 80.675781 C 337.867188 79.78125 339.191406 78.816406 340.464844 77.785156 C 341.738281 76.753906 342.957031 75.660156 344.117188 74.5 C 345.273438 73.339844 346.371094 72.125 347.402344 70.847656 C 348.433594 69.574219 349.394531 68.25 350.289062 66.875 C 351.183594 65.503906 352 64.085938 352.746094 62.625 C 353.492188 61.164062 354.160156 59.667969 354.746094 58.140625 C 355.335938 56.609375 355.84375 55.050781 356.269531 53.46875 C 356.695312 51.886719 357.035156 50.285156 357.292969 48.667969 C 357.550781 47.046875 357.726562 45.417969 357.8125 43.78125 C 357.902344 42.144531 357.902344 40.507812 357.820312 38.871094 L 356.867188 20.210938 L 369.390625 34.105469 C 370.488281 35.320312 371.648438 36.476562 372.867188 37.574219 C 374.085938 38.667969 375.359375 39.699219 376.6875 40.660156 C 378.015625 41.621094 379.390625 42.511719 380.8125 43.332031 C 382.230469 44.148438 383.691406 44.890625 385.1875 45.558594 C 386.6875 46.222656 388.214844 46.808594 389.777344 47.316406 C 391.335938 47.820312 392.917969 48.246094 394.519531 48.585938 C 396.125 48.925781 397.742188 49.179688 399.371094 49.351562 C 401.003906 49.523438 402.636719 49.609375 404.277344 49.609375 C 405.917969 49.609375 407.550781 49.523438 409.183594 49.351562 C 410.8125 49.179688 412.429688 48.925781 414.035156 48.585938 C 415.636719 48.246094 417.21875 47.820312 418.78125 47.316406 C 420.339844 46.808594 421.867188 46.222656 423.367188 45.558594 C 424.863281 44.890625 426.324219 44.148438 427.746094 43.332031 C 429.164062 42.511719 430.539062 41.621094 431.867188 40.660156 C 433.195312 39.699219 434.46875 38.667969 435.6875 37.574219 C 436.90625 36.476562 438.066406 35.320312 439.164062 34.105469 Z M 439.164062 34.105469 " fill-opacity="1" fill-rule="nonzero"/></g><path fill="#f27446" d="M 367.808594 134.664062 C 367.808594 133.472656 367.867188 132.28125 367.984375 131.089844 C 368.101562 129.902344 368.277344 128.722656 368.511719 127.550781 C 368.742188 126.378906 369.035156 125.222656 369.378906 124.078125 C 369.726562 122.9375 370.128906 121.8125 370.585938 120.710938 C 371.042969 119.605469 371.550781 118.527344 372.117188 117.476562 C 372.679688 116.421875 373.292969 115.398438 373.957031 114.40625 C 374.617188 113.410156 375.328125 112.453125 376.085938 111.53125 C 376.84375 110.605469 377.644531 109.722656 378.492188 108.878906 C 379.335938 108.035156 380.21875 107.234375 381.140625 106.476562 C 382.066406 105.71875 383.023438 105.007812 384.015625 104.34375 C 385.011719 103.679688 386.035156 103.066406 387.085938 102.503906 C 388.140625 101.941406 389.21875 101.429688 390.320312 100.972656 C 391.425781 100.515625 392.546875 100.113281 393.691406 99.769531 C 394.835938 99.421875 395.992188 99.132812 397.164062 98.898438 C 398.335938 98.664062 399.515625 98.492188 400.703125 98.375 C 401.890625 98.257812 403.082031 98.199219 404.277344 98.199219 C 405.472656 98.199219 406.664062 98.257812 407.851562 98.375 C 409.039062 98.492188 410.21875 98.664062 411.390625 98.898438 C 412.5625 99.132812 413.71875 99.421875 414.863281 99.769531 C 416.007812 100.113281 417.128906 100.515625 418.234375 100.972656 C 419.335938 101.429688 420.414062 101.941406 421.46875 102.503906 C 422.523438 103.066406 423.542969 103.679688 424.539062 104.34375 C 425.53125 105.007812 426.488281 105.71875 427.414062 106.476562 C 428.335938 107.234375 429.21875 108.035156 430.0625 108.878906 C 430.910156 109.722656 431.710938 110.605469 432.46875 111.53125 C 433.226562 112.453125 433.9375 113.410156 434.597656 114.40625 C 435.261719 115.398438 435.875 116.421875 436.4375 117.476562 C 437.003906 118.527344 437.511719 119.605469 437.96875 120.710938 C 438.425781 121.8125 438.828125 122.9375 439.175781 124.078125 C 439.523438 125.222656 439.8125 126.378906 440.042969 127.550781 C 440.277344 128.722656 440.453125 129.902344 440.570312 131.089844 C 440.6875 132.28125 440.746094 133.472656 440.746094 134.664062 C 440.746094 135.859375 440.6875 137.050781 440.570312 138.238281 C 440.453125 139.429688 440.277344 140.609375 440.042969 141.78125 C 439.8125 142.953125 439.523438 144.109375 439.175781 145.25 C 438.828125 146.394531 438.425781 147.519531 437.96875 148.621094 C 437.511719 149.722656 437.003906 150.804688 436.4375 151.855469 C 435.875 152.910156 435.261719 153.933594 434.597656 154.925781 C 433.9375 155.917969 433.226562 156.878906 432.46875 157.800781 C 431.710938 158.722656 430.910156 159.609375 430.0625 160.453125 C 429.21875 161.296875 428.335938 162.097656 427.414062 162.855469 C 426.488281 163.613281 425.53125 164.324219 424.539062 164.988281 C 423.542969 165.652344 422.523438 166.265625 421.46875 166.828125 C 420.414062 167.390625 419.335938 167.898438 418.234375 168.355469 C 417.128906 168.8125 416.007812 169.214844 414.863281 169.5625 C 413.71875 169.910156 412.5625 170.199219 411.390625 170.433594 C 410.21875 170.664062 409.039062 170.839844 407.851562 170.957031 C 406.664062 171.074219 405.472656 171.132812 404.277344 171.132812 C 403.082031 171.132812 401.890625 171.074219 400.703125 170.957031 C 399.515625 170.839844 398.335938 170.664062 397.164062 170.433594 C 395.992188 170.199219 394.835938 169.910156 393.691406 169.5625 C 392.546875 169.214844 391.425781 168.8125 390.320312 168.355469 C 389.21875 167.898438 388.140625 167.390625 387.085938 166.828125 C 386.035156 166.265625 385.011719 165.652344 384.015625 164.988281 C 383.023438 164.324219 382.066406 163.613281 381.140625 162.855469 C 380.21875 162.097656 379.335938 161.296875 378.492188 160.453125 C 377.644531 159.609375 376.84375 158.722656 376.085938 157.800781 C 375.328125 156.878906 374.621094 155.917969 373.957031 154.925781 C 373.292969 153.933594 372.679688 152.910156 372.117188 151.855469 C 371.554688 150.804688 371.042969 149.722656 370.585938 148.621094 C 370.128906 147.519531 369.726562 146.394531 369.378906 145.25 C 369.035156 144.109375 368.742188 142.953125 368.511719 141.78125 C 368.277344 140.609375 368.101562 139.429688 367.984375 138.238281 C 367.867188 137.050781 367.808594 135.859375 367.808594 134.664062 Z M 367.808594 134.664062 " fill-opacity="1" fill-rule="nonzero"/><path fill="#f2f2f2" d="M 558.453125 382.605469 C 558.03125 382.605469 557.609375 382.582031 557.191406 382.53125 C 556.769531 382.484375 556.355469 382.410156 555.945312 382.3125 C 555.535156 382.214844 555.128906 382.09375 554.734375 381.949219 C 554.335938 381.800781 553.949219 381.632812 553.574219 381.445312 C 553.195312 381.253906 552.832031 381.042969 552.480469 380.808594 C 552.128906 380.574219 551.789062 380.324219 551.46875 380.050781 C 551.144531 379.777344 550.839844 379.488281 550.550781 379.179688 C 550.265625 378.871094 549.996094 378.546875 549.746094 378.207031 C 549.492188 377.863281 549.265625 377.511719 549.054688 377.144531 C 548.847656 376.777344 548.660156 376.398438 548.496094 376.011719 C 548.332031 375.621094 548.191406 375.222656 548.074219 374.820312 C 547.953125 374.414062 547.859375 374 547.792969 373.585938 C 547.722656 373.167969 547.675781 372.75 547.65625 372.328125 C 547.636719 371.90625 547.640625 371.484375 547.667969 371.0625 C 547.699219 370.640625 547.75 370.222656 547.828125 369.808594 C 547.90625 369.394531 548.007812 368.984375 548.136719 368.582031 L 554.308594 348.824219 C 555.152344 346.144531 555.785156 343.414062 556.210938 340.640625 C 556.636719 337.863281 556.847656 335.070312 556.847656 332.261719 C 556.847656 329.453125 556.636719 326.660156 556.210938 323.886719 C 555.785156 321.109375 555.152344 318.382812 554.308594 315.703125 C 553.140625 311.976562 552.261719 308.1875 551.671875 304.332031 C 551.078125 300.472656 550.785156 296.59375 550.785156 292.691406 C 550.785156 288.789062 551.078125 284.910156 551.671875 281.050781 C 552.261719 277.195312 553.140625 273.40625 554.308594 269.679688 L 560.484375 249.921875 C 560.695312 249.246094 560.972656 248.59375 561.3125 247.972656 C 561.652344 247.347656 562.046875 246.765625 562.503906 246.21875 C 562.957031 245.675781 563.460938 245.179688 564.011719 244.734375 C 564.5625 244.289062 565.15625 243.902344 565.78125 243.570312 C 566.410156 243.242188 567.066406 242.976562 567.746094 242.777344 C 568.425781 242.578125 569.121094 242.445312 569.828125 242.378906 C 570.535156 242.316406 571.238281 242.324219 571.945312 242.398438 C 572.652344 242.472656 573.34375 242.617188 574.019531 242.828125 C 574.695312 243.039062 575.347656 243.316406 575.96875 243.652344 C 576.59375 243.992188 577.175781 244.390625 577.722656 244.84375 C 578.265625 245.300781 578.761719 245.804688 579.207031 246.355469 C 579.652344 246.90625 580.039062 247.496094 580.371094 248.125 C 580.699219 248.753906 580.964844 249.410156 581.164062 250.089844 C 581.367188 250.769531 581.496094 251.464844 581.5625 252.171875 C 581.625 252.875 581.621094 253.582031 581.542969 254.289062 C 581.46875 254.992188 581.324219 255.683594 581.113281 256.363281 L 574.941406 276.121094 C 574.097656 278.800781 573.464844 281.53125 573.039062 284.308594 C 572.613281 287.085938 572.398438 289.878906 572.398438 292.6875 C 572.398438 295.496094 572.613281 298.292969 573.039062 301.070312 C 573.464844 303.84375 574.097656 306.574219 574.941406 309.253906 C 576.109375 312.976562 576.988281 316.765625 577.578125 320.621094 C 578.167969 324.476562 578.464844 328.355469 578.464844 332.253906 C 578.464844 336.15625 578.167969 340.035156 577.578125 343.890625 C 576.988281 347.746094 576.109375 351.535156 574.941406 355.257812 L 568.765625 375.015625 C 568.59375 375.5625 568.382812 376.089844 568.128906 376.605469 C 567.875 377.117188 567.582031 377.605469 567.25 378.070312 C 566.917969 378.535156 566.550781 378.972656 566.148438 379.382812 C 565.746094 379.789062 565.316406 380.164062 564.855469 380.5 C 564.394531 380.839844 563.910156 381.140625 563.398438 381.402344 C 562.890625 381.664062 562.367188 381.886719 561.820312 382.066406 C 561.277344 382.242188 560.722656 382.378906 560.160156 382.46875 C 559.59375 382.558594 559.027344 382.605469 558.453125 382.605469 Z M 558.453125 382.605469 " fill-opacity="1" fill-rule="nonzero"/><path fill="#f2f2f2" d="M 623.578125 320.8125 C 623.15625 320.8125 622.738281 320.785156 622.316406 320.734375 C 621.898438 320.683594 621.484375 320.609375 621.074219 320.511719 C 620.667969 320.410156 620.265625 320.289062 619.867188 320.140625 C 619.472656 319.996094 619.085938 319.828125 618.710938 319.636719 C 618.335938 319.445312 617.972656 319.230469 617.621094 319 C 617.273438 318.765625 616.9375 318.511719 616.613281 318.238281 C 616.292969 317.964844 615.988281 317.675781 615.703125 317.367188 C 615.414062 317.058594 615.148438 316.734375 614.898438 316.394531 C 614.648438 316.054688 614.417969 315.699219 614.210938 315.332031 C 614.003906 314.964844 613.816406 314.589844 613.652344 314.199219 C 613.488281 313.8125 613.347656 313.414062 613.230469 313.011719 C 613.113281 312.605469 613.019531 312.195312 612.953125 311.78125 C 612.882812 311.363281 612.835938 310.945312 612.816406 310.523438 C 612.796875 310.105469 612.800781 309.683594 612.828125 309.261719 C 612.855469 308.84375 612.910156 308.425781 612.988281 308.011719 C 613.066406 307.597656 613.164062 307.1875 613.289062 306.785156 L 619.464844 287.027344 C 620.308594 284.347656 620.941406 281.621094 621.367188 278.84375 C 621.789062 276.070312 622.003906 273.277344 622.003906 270.46875 C 622.003906 267.660156 621.789062 264.867188 621.367188 262.09375 C 620.941406 259.316406 620.308594 256.589844 619.464844 253.910156 C 618.296875 250.1875 617.417969 246.398438 616.828125 242.542969 C 616.238281 238.6875 615.945312 234.808594 615.945312 230.90625 C 615.945312 227.007812 616.238281 223.128906 616.828125 219.269531 C 617.417969 215.414062 618.296875 211.625 619.464844 207.902344 L 625.640625 188.144531 C 625.851562 187.46875 626.128906 186.816406 626.464844 186.195312 C 626.804688 185.570312 627.203125 184.988281 627.65625 184.441406 C 628.113281 183.898438 628.617188 183.402344 629.167969 182.957031 C 629.71875 182.511719 630.308594 182.125 630.9375 181.792969 C 631.566406 181.464844 632.222656 181.199219 632.902344 181 C 633.582031 180.796875 634.277344 180.667969 634.984375 180.601562 C 635.691406 180.539062 636.394531 180.542969 637.101562 180.621094 C 637.804688 180.695312 638.496094 180.839844 639.175781 181.050781 C 639.851562 181.261719 640.503906 181.535156 641.125 181.875 C 641.75 182.214844 642.332031 182.613281 642.878906 183.066406 C 643.421875 183.523438 643.917969 184.023438 644.363281 184.578125 C 644.808594 185.128906 645.195312 185.71875 645.527344 186.347656 C 645.855469 186.976562 646.121094 187.628906 646.320312 188.3125 C 646.519531 188.992188 646.652344 189.6875 646.71875 190.390625 C 646.78125 191.097656 646.773438 191.804688 646.699219 192.511719 C 646.625 193.214844 646.480469 193.90625 646.269531 194.585938 L 640.09375 214.34375 C 639.253906 217.023438 638.621094 219.753906 638.195312 222.527344 C 637.769531 225.304688 637.558594 228.097656 637.558594 230.90625 C 637.558594 233.714844 637.769531 236.507812 638.195312 239.285156 C 638.621094 242.0625 639.253906 244.789062 640.09375 247.472656 C 641.261719 251.191406 642.140625 254.980469 642.730469 258.835938 C 643.320312 262.691406 643.613281 266.570312 643.613281 270.46875 C 643.613281 274.367188 643.320312 278.246094 642.730469 282.101562 C 642.140625 285.957031 641.261719 289.746094 640.09375 293.464844 L 633.921875 313.226562 C 633.75 313.773438 633.539062 314.304688 633.28125 314.816406 C 633.027344 315.332031 632.734375 315.820312 632.398438 316.289062 C 632.066406 316.753906 631.699219 317.191406 631.296875 317.601562 C 630.894531 318.007812 630.460938 318.382812 630 318.722656 C 629.535156 319.0625 629.050781 319.363281 628.539062 319.625 C 628.027344 319.886719 627.5 320.105469 626.957031 320.28125 C 626.410156 320.460938 625.855469 320.59375 625.289062 320.683594 C 624.722656 320.773438 624.152344 320.816406 623.578125 320.8125 Z M 623.578125 320.8125 " fill-opacity="1" fill-rule="nonzero"/><path fill="#f2f2f2" d="M 250.09375 382.605469 C 249.523438 382.605469 248.953125 382.558594 248.390625 382.46875 C 247.824219 382.378906 247.269531 382.242188 246.726562 382.066406 C 246.183594 381.886719 245.660156 381.667969 245.148438 381.40625 C 244.640625 381.144531 244.15625 380.84375 243.695312 380.503906 C 243.234375 380.164062 242.804688 379.792969 242.402344 379.386719 C 242 378.976562 241.632812 378.542969 241.300781 378.074219 C 240.96875 377.609375 240.675781 377.121094 240.421875 376.609375 C 240.167969 376.097656 239.953125 375.566406 239.785156 375.023438 L 233.609375 355.261719 C 232.441406 351.539062 231.5625 347.75 230.972656 343.894531 C 230.382812 340.039062 230.089844 336.164062 230.089844 332.261719 C 230.089844 328.363281 230.382812 324.484375 230.972656 320.628906 C 231.5625 316.773438 232.441406 312.984375 233.609375 309.261719 C 234.449219 306.582031 235.082031 303.851562 235.507812 301.074219 C 235.933594 298.296875 236.148438 295.503906 236.148438 292.695312 C 236.148438 289.886719 235.933594 287.089844 235.507812 284.316406 C 235.082031 281.539062 234.449219 278.808594 233.609375 276.128906 L 227.433594 256.367188 C 227.222656 255.691406 227.082031 255 227.007812 254.296875 C 226.929688 253.589844 226.925781 252.882812 226.992188 252.179688 C 227.054688 251.472656 227.1875 250.777344 227.386719 250.097656 C 227.589844 249.417969 227.855469 248.765625 228.183594 248.136719 C 228.511719 247.507812 228.898438 246.917969 229.347656 246.367188 C 229.792969 245.816406 230.285156 245.3125 230.832031 244.859375 C 231.375 244.40625 231.960938 244.007812 232.582031 243.667969 C 233.203125 243.328125 233.855469 243.054688 234.53125 242.84375 C 235.207031 242.632812 235.898438 242.488281 236.605469 242.414062 C 237.308594 242.335938 238.015625 242.332031 238.722656 242.394531 C 239.429688 242.457031 240.121094 242.589844 240.800781 242.789062 C 241.480469 242.992188 242.136719 243.253906 242.765625 243.585938 C 243.394531 243.914062 243.984375 244.300781 244.535156 244.746094 C 245.085938 245.191406 245.589844 245.6875 246.042969 246.230469 C 246.5 246.773438 246.894531 247.355469 247.234375 247.980469 C 247.574219 248.601562 247.851562 249.25 248.0625 249.929688 L 254.238281 269.6875 C 255.40625 273.410156 256.285156 277.199219 256.878906 281.058594 C 257.46875 284.914062 257.765625 288.792969 257.765625 292.695312 C 257.765625 296.597656 257.46875 300.476562 256.878906 304.332031 C 256.285156 308.1875 255.40625 311.980469 254.238281 315.703125 C 253.398438 318.382812 252.765625 321.109375 252.34375 323.886719 C 251.917969 326.660156 251.707031 329.453125 251.707031 332.261719 C 251.707031 335.070312 251.917969 337.863281 252.34375 340.636719 C 252.765625 343.414062 253.398438 346.140625 254.238281 348.824219 L 260.414062 368.582031 C 260.539062 368.984375 260.640625 369.394531 260.71875 369.808594 C 260.796875 370.222656 260.851562 370.640625 260.878906 371.0625 C 260.910156 371.484375 260.914062 371.90625 260.894531 372.328125 C 260.871094 372.75 260.828125 373.167969 260.757812 373.585938 C 260.6875 374 260.59375 374.414062 260.476562 374.820312 C 260.359375 375.222656 260.21875 375.621094 260.054688 376.011719 C 259.886719 376.398438 259.703125 376.777344 259.492188 377.144531 C 259.285156 377.511719 259.054688 377.863281 258.804688 378.207031 C 258.554688 378.546875 258.285156 378.871094 257.996094 379.179688 C 257.707031 379.488281 257.402344 379.777344 257.082031 380.050781 C 256.757812 380.324219 256.421875 380.574219 256.070312 380.808594 C 255.714844 381.042969 255.351562 381.253906 254.976562 381.445312 C 254.597656 381.632812 254.210938 381.800781 253.816406 381.949219 C 253.417969 382.09375 253.015625 382.214844 252.601562 382.3125 C 252.191406 382.410156 251.777344 382.484375 251.359375 382.53125 C 250.9375 382.582031 250.515625 382.605469 250.09375 382.605469 Z M 250.09375 382.605469 " fill-opacity="1" fill-rule="nonzero"/><path fill="#f2f2f2" d="M 184.976562 320.8125 C 184.40625 320.8125 183.835938 320.769531 183.269531 320.679688 C 182.707031 320.585938 182.152344 320.453125 181.609375 320.273438 C 181.066406 320.097656 180.539062 319.875 180.03125 319.613281 C 179.523438 319.351562 179.035156 319.050781 178.574219 318.710938 C 178.117188 318.371094 177.683594 318 177.28125 317.589844 C 176.882812 317.183594 176.515625 316.746094 176.183594 316.28125 C 175.851562 315.816406 175.558594 315.324219 175.300781 314.8125 C 175.046875 314.300781 174.835938 313.773438 174.664062 313.226562 L 168.492188 293.464844 C 167.324219 289.746094 166.445312 285.957031 165.855469 282.101562 C 165.265625 278.246094 164.972656 274.367188 164.972656 270.46875 C 164.972656 266.570312 165.265625 262.691406 165.855469 258.835938 C 166.445312 254.980469 167.324219 251.191406 168.492188 247.472656 C 169.332031 244.789062 169.964844 242.0625 170.390625 239.285156 C 170.816406 236.507812 171.027344 233.714844 171.027344 230.90625 C 171.027344 228.097656 170.816406 225.304688 170.390625 222.527344 C 169.964844 219.753906 169.332031 217.023438 168.492188 214.34375 L 162.316406 194.585938 C 162.085938 193.902344 161.925781 193.203125 161.832031 192.488281 C 161.742188 191.777344 161.722656 191.058594 161.777344 190.339844 C 161.828125 189.625 161.949219 188.917969 162.144531 188.222656 C 162.335938 187.53125 162.597656 186.863281 162.925781 186.222656 C 163.25 185.578125 163.636719 184.976562 164.085938 184.414062 C 164.535156 183.847656 165.03125 183.332031 165.582031 182.871094 C 166.132812 182.40625 166.722656 182 167.355469 181.652344 C 167.984375 181.304688 168.644531 181.027344 169.332031 180.8125 C 170.019531 180.597656 170.722656 180.453125 171.4375 180.378906 C 172.152344 180.304688 172.871094 180.300781 173.585938 180.371094 C 174.304688 180.4375 175.007812 180.578125 175.695312 180.789062 C 176.382812 180.996094 177.046875 181.273438 177.679688 181.613281 C 178.3125 181.957031 178.90625 182.355469 179.460938 182.816406 C 180.015625 183.277344 180.515625 183.789062 180.96875 184.347656 C 181.421875 184.910156 181.8125 185.507812 182.144531 186.148438 C 182.476562 186.785156 182.742188 187.453125 182.9375 188.144531 L 189.113281 207.902344 C 190.28125 211.625 191.164062 215.414062 191.753906 219.269531 C 192.34375 223.128906 192.640625 227.007812 192.640625 230.90625 C 192.640625 234.808594 192.34375 238.6875 191.753906 242.542969 C 191.164062 246.398438 190.28125 250.1875 189.113281 253.910156 C 188.273438 256.589844 187.640625 259.316406 187.21875 262.09375 C 186.792969 264.871094 186.582031 267.660156 186.582031 270.46875 C 186.582031 273.277344 186.792969 276.066406 187.21875 278.84375 C 187.640625 281.621094 188.273438 284.347656 189.113281 287.027344 L 195.289062 306.785156 C 195.414062 307.1875 195.515625 307.597656 195.59375 308.011719 C 195.671875 308.425781 195.722656 308.84375 195.753906 309.265625 C 195.78125 309.6875 195.785156 310.109375 195.765625 310.53125 C 195.746094 310.953125 195.699219 311.371094 195.628906 311.789062 C 195.558594 312.203125 195.464844 312.613281 195.347656 313.019531 C 195.230469 313.425781 195.089844 313.824219 194.925781 314.210938 C 194.761719 314.601562 194.574219 314.976562 194.367188 315.34375 C 194.15625 315.710938 193.929688 316.066406 193.679688 316.40625 C 193.429688 316.746094 193.160156 317.070312 192.871094 317.378906 C 192.582031 317.6875 192.277344 317.976562 191.957031 318.25 C 191.632812 318.523438 191.296875 318.777344 190.945312 319.011719 C 190.59375 319.242188 190.230469 319.457031 189.851562 319.648438 C 189.476562 319.835938 189.089844 320.003906 188.695312 320.152344 C 188.296875 320.296875 187.894531 320.417969 187.484375 320.515625 C 187.074219 320.617188 186.65625 320.6875 186.238281 320.738281 C 185.820312 320.789062 185.398438 320.8125 184.976562 320.8125 Z M 184.976562 320.8125 " fill-opacity="1" fill-rule="nonzero"/><g clip-path="url(#id4)"><path fill="#a34f3e" d="M 141.605469 710.234375 C 141.601562 709.523438 141.53125 708.824219 141.390625 708.128906 C 141.25 707.433594 141.042969 706.761719 140.769531 706.105469 C 140.496094 705.453125 140.164062 704.832031 139.769531 704.242188 C 139.375 703.652344 138.925781 703.109375 138.425781 702.605469 C 137.925781 702.105469 137.378906 701.660156 136.792969 701.265625 C 136.203125 700.871094 135.582031 700.535156 134.925781 700.265625 C 134.273438 699.992188 133.597656 699.785156 132.90625 699.644531 C 132.210938 699.503906 131.507812 699.429688 130.800781 699.429688 L 20.582031 699.429688 C 20.472656 699.417969 20.371094 699.4375 20.273438 699.488281 L 20.273438 720.976562 C 20.371094 721.027344 20.472656 721.050781 20.582031 721.039062 L 130.800781 721.039062 C 131.507812 721.039062 132.210938 720.96875 132.90625 720.828125 C 133.601562 720.691406 134.277344 720.484375 134.933594 720.214844 C 135.589844 719.941406 136.210938 719.609375 136.800781 719.214844 C 137.390625 718.820312 137.9375 718.371094 138.4375 717.871094 C 138.9375 717.371094 139.386719 716.824219 139.78125 716.234375 C 140.175781 715.644531 140.507812 715.023438 140.78125 714.367188 C 141.050781 713.710938 141.257812 713.035156 141.394531 712.339844 C 141.535156 711.644531 141.605469 710.941406 141.605469 710.234375 Z M 141.605469 710.234375 " fill-opacity="1" fill-rule="nonzero"/></g><path fill="#a34f3e" d="M 230.625 744.195312 L 143.136719 744.195312 C 142.425781 744.195312 141.726562 744.265625 141.027344 744.402344 C 140.332031 744.539062 139.65625 744.746094 139.003906 745.015625 C 138.347656 745.289062 137.722656 745.621094 137.132812 746.015625 C 136.542969 746.410156 136 746.859375 135.496094 747.359375 C 134.996094 747.859375 134.546875 748.40625 134.152344 748.996094 C 133.757812 749.585938 133.425781 750.210938 133.152344 750.863281 C 132.882812 751.519531 132.675781 752.195312 132.539062 752.890625 C 132.402344 753.589844 132.332031 754.289062 132.332031 755 C 132.332031 755.710938 132.402344 756.414062 132.539062 757.109375 C 132.675781 757.804688 132.882812 758.480469 133.152344 759.136719 C 133.425781 759.789062 133.757812 760.414062 134.152344 761.003906 C 134.546875 761.59375 134.996094 762.140625 135.496094 762.640625 C 136 763.144531 136.542969 763.589844 137.132812 763.984375 C 137.722656 764.378906 138.347656 764.710938 139.003906 764.984375 C 139.65625 765.253906 140.332031 765.460938 141.027344 765.597656 C 141.726562 765.738281 142.425781 765.804688 143.136719 765.804688 L 230.625 765.804688 C 231.335938 765.804688 232.039062 765.738281 232.734375 765.597656 C 233.429688 765.460938 234.105469 765.253906 234.761719 764.984375 C 235.417969 764.710938 236.039062 764.378906 236.628906 763.984375 C 237.21875 763.589844 237.765625 763.144531 238.265625 762.640625 C 238.769531 762.140625 239.21875 761.59375 239.609375 761.003906 C 240.003906 760.414062 240.339844 759.789062 240.609375 759.136719 C 240.882812 758.480469 241.085938 757.804688 241.222656 757.109375 C 241.363281 756.414062 241.433594 755.710938 241.433594 755 C 241.433594 754.289062 241.363281 753.589844 241.222656 752.890625 C 241.085938 752.195312 240.882812 751.519531 240.609375 750.863281 C 240.339844 750.210938 240.003906 749.585938 239.609375 748.996094 C 239.21875 748.40625 238.769531 747.859375 238.265625 747.359375 C 237.765625 746.859375 237.21875 746.410156 236.628906 746.015625 C 236.039062 745.621094 235.417969 745.289062 234.761719 745.015625 C 234.105469 744.746094 233.429688 744.539062 232.734375 744.402344 C 232.039062 744.265625 231.335938 744.195312 230.625 744.195312 Z M 230.625 744.195312 " fill-opacity="1" fill-rule="nonzero"/><path fill="#a34f3e" d="M 361.503906 711.796875 L 262.464844 711.796875 C 261.753906 711.796875 261.050781 711.863281 260.355469 712.003906 C 259.660156 712.140625 258.984375 712.347656 258.328125 712.617188 C 257.671875 712.890625 257.050781 713.222656 256.460938 713.617188 C 255.871094 714.011719 255.324219 714.460938 254.824219 714.960938 C 254.320312 715.460938 253.871094 716.007812 253.480469 716.597656 C 253.085938 717.1875 252.75 717.8125 252.480469 718.464844 C 252.207031 719.121094 252.003906 719.796875 251.863281 720.492188 C 251.726562 721.1875 251.65625 721.890625 251.65625 722.601562 C 251.65625 723.3125 251.726562 724.015625 251.863281 724.710938 C 252.003906 725.40625 252.207031 726.082031 252.480469 726.738281 C 252.75 727.390625 253.085938 728.015625 253.480469 728.605469 C 253.871094 729.195312 254.320312 729.742188 254.824219 730.242188 C 255.324219 730.742188 255.871094 731.191406 256.460938 731.585938 C 257.050781 731.980469 257.671875 732.3125 258.328125 732.585938 C 258.984375 732.855469 259.660156 733.0625 260.355469 733.199219 C 261.050781 733.339844 261.753906 733.40625 262.464844 733.40625 L 361.503906 733.40625 C 362.214844 733.40625 362.917969 733.339844 363.613281 733.199219 C 364.308594 733.0625 364.984375 732.855469 365.640625 732.585938 C 366.296875 732.3125 366.917969 731.980469 367.507812 731.585938 C 368.097656 731.191406 368.644531 730.742188 369.144531 730.242188 C 369.648438 729.742188 370.097656 729.195312 370.488281 728.605469 C 370.882812 728.015625 371.21875 727.390625 371.488281 726.738281 C 371.761719 726.082031 371.964844 725.40625 372.101562 724.710938 C 372.242188 724.015625 372.3125 723.3125 372.3125 722.601562 C 372.3125 721.890625 372.242188 721.1875 372.101562 720.492188 C 371.964844 719.796875 371.761719 719.121094 371.488281 718.464844 C 371.21875 717.8125 370.882812 717.1875 370.488281 716.597656 C 370.097656 716.007812 369.648438 715.460938 369.144531 714.960938 C 368.644531 714.460938 368.097656 714.011719 367.507812 713.617188 C 366.917969 713.222656 366.296875 712.890625 365.640625 712.617188 C 364.984375 712.347656 364.308594 712.140625 363.613281 712.003906 C 362.917969 711.863281 362.214844 711.796875 361.503906 711.796875 Z M 361.503906 711.796875 " fill-opacity="1" fill-rule="nonzero"/><path fill="#a34f3e" d="M 787.972656 699.429688 L 677.753906 699.429688 C 677.046875 699.429688 676.34375 699.496094 675.648438 699.636719 C 674.949219 699.773438 674.273438 699.980469 673.621094 700.25 C 672.964844 700.523438 672.339844 700.855469 671.75 701.25 C 671.160156 701.644531 670.617188 702.089844 670.113281 702.59375 C 669.613281 703.09375 669.164062 703.640625 668.769531 704.230469 C 668.375 704.820312 668.042969 705.441406 667.773438 706.097656 C 667.5 706.753906 667.296875 707.429688 667.15625 708.125 C 667.019531 708.820312 666.949219 709.523438 666.949219 710.234375 C 666.949219 710.941406 667.019531 711.644531 667.15625 712.34375 C 667.296875 713.039062 667.5 713.714844 667.773438 714.367188 C 668.042969 715.023438 668.375 715.648438 668.769531 716.238281 C 669.164062 716.828125 669.613281 717.371094 670.113281 717.875 C 670.617188 718.375 671.160156 718.824219 671.75 719.21875 C 672.339844 719.613281 672.964844 719.945312 673.621094 720.21875 C 674.273438 720.488281 674.949219 720.695312 675.648438 720.832031 C 676.34375 720.96875 677.046875 721.039062 677.753906 721.039062 L 787.972656 721.039062 C 788.3125 721.0625 788.640625 721.023438 788.960938 720.914062 L 788.960938 699.550781 C 788.640625 699.445312 788.3125 699.402344 787.972656 699.429688 Z M 787.972656 699.429688 " fill-opacity="1" fill-rule="nonzero"/><path fill="#a34f3e" d="M 665.417969 744.195312 L 577.929688 744.195312 C 577.21875 744.195312 576.515625 744.265625 575.820312 744.402344 C 575.125 744.539062 574.449219 744.746094 573.792969 745.015625 C 573.136719 745.289062 572.515625 745.621094 571.925781 746.015625 C 571.335938 746.410156 570.789062 746.859375 570.289062 747.359375 C 569.785156 747.859375 569.339844 748.40625 568.945312 748.996094 C 568.550781 749.585938 568.214844 750.210938 567.945312 750.863281 C 567.671875 751.519531 567.46875 752.195312 567.332031 752.890625 C 567.191406 753.589844 567.121094 754.289062 567.121094 755 C 567.121094 755.710938 567.191406 756.414062 567.332031 757.109375 C 567.46875 757.804688 567.671875 758.480469 567.945312 759.136719 C 568.214844 759.789062 568.550781 760.414062 568.945312 761.003906 C 569.339844 761.59375 569.785156 762.140625 570.289062 762.640625 C 570.789062 763.144531 571.335938 763.589844 571.925781 763.984375 C 572.515625 764.378906 573.136719 764.710938 573.792969 764.984375 C 574.449219 765.253906 575.125 765.460938 575.820312 765.597656 C 576.515625 765.738281 577.21875 765.804688 577.929688 765.804688 L 665.417969 765.804688 C 666.128906 765.804688 666.828125 765.738281 667.527344 765.597656 C 668.222656 765.460938 668.898438 765.253906 669.554688 764.984375 C 670.207031 764.710938 670.832031 764.378906 671.421875 763.984375 C 672.011719 763.589844 672.558594 763.144531 673.058594 762.640625 C 673.558594 762.140625 674.007812 761.59375 674.402344 761.003906 C 674.796875 760.414062 675.128906 759.789062 675.402344 759.136719 C 675.671875 758.480469 675.878906 757.804688 676.015625 757.109375 C 676.152344 756.414062 676.222656 755.710938 676.222656 755 C 676.222656 754.289062 676.152344 753.589844 676.015625 752.890625 C 675.878906 752.195312 675.671875 751.519531 675.402344 750.863281 C 675.128906 750.210938 674.796875 749.585938 674.402344 748.996094 C 674.007812 748.40625 673.558594 747.859375 673.058594 747.359375 C 672.558594 746.859375 672.011719 746.410156 671.421875 746.015625 C 670.832031 745.621094 670.207031 745.289062 669.554688 745.015625 C 668.898438 744.746094 668.222656 744.539062 667.527344 744.402344 C 666.828125 744.265625 666.128906 744.195312 665.417969 744.195312 Z M 665.417969 744.195312 " fill-opacity="1" fill-rule="nonzero"/><path fill="#a34f3e" d="M 546.089844 711.796875 L 447.042969 711.796875 C 446.332031 711.796875 445.632812 711.863281 444.933594 712.003906 C 444.238281 712.140625 443.5625 712.347656 442.910156 712.617188 C 442.253906 712.890625 441.628906 713.222656 441.039062 713.617188 C 440.449219 714.011719 439.902344 714.460938 439.402344 714.960938 C 438.902344 715.460938 438.453125 716.007812 438.058594 716.597656 C 437.664062 717.1875 437.332031 717.8125 437.058594 718.464844 C 436.789062 719.121094 436.582031 719.796875 436.445312 720.492188 C 436.308594 721.1875 436.238281 721.890625 436.238281 722.601562 C 436.238281 723.3125 436.308594 724.015625 436.445312 724.710938 C 436.582031 725.40625 436.789062 726.082031 437.058594 726.738281 C 437.332031 727.390625 437.664062 728.015625 438.058594 728.605469 C 438.453125 729.195312 438.902344 729.742188 439.402344 730.242188 C 439.902344 730.742188 440.449219 731.191406 441.039062 731.585938 C 441.628906 731.980469 442.253906 732.3125 442.910156 732.585938 C 443.5625 732.855469 444.238281 733.0625 444.933594 733.199219 C 445.632812 733.339844 446.332031 733.40625 447.042969 733.40625 L 546.089844 733.40625 C 546.800781 733.40625 547.503906 733.339844 548.199219 733.199219 C 548.894531 733.0625 549.570312 732.855469 550.226562 732.585938 C 550.882812 732.3125 551.503906 731.980469 552.09375 731.585938 C 552.683594 731.191406 553.230469 730.742188 553.734375 730.242188 C 554.234375 729.742188 554.683594 729.195312 555.078125 728.605469 C 555.46875 728.015625 555.804688 727.390625 556.074219 726.738281 C 556.347656 726.082031 556.550781 725.40625 556.691406 724.710938 C 556.828125 724.015625 556.898438 723.3125 556.898438 722.601562 C 556.898438 721.890625 556.828125 721.1875 556.691406 720.492188 C 556.550781 719.796875 556.347656 719.121094 556.074219 718.464844 C 555.804688 717.8125 555.46875 717.1875 555.078125 716.597656 C 554.683594 716.007812 554.234375 715.460938 553.734375 714.960938 C 553.230469 714.460938 552.683594 714.011719 552.09375 713.617188 C 551.503906 713.222656 550.882812 712.890625 550.226562 712.617188 C 549.570312 712.347656 548.894531 712.140625 548.199219 712.003906 C 547.503906 711.863281 546.800781 711.796875 546.089844 711.796875 Z M 546.089844 711.796875 " fill-opacity="1" fill-rule="nonzero"/></svg>