<svg xmlns="http://www.w3.org/2000/svg" xmlns:xlink="http://www.w3.org/1999/xlink" width="1080" zoomAndPan="magnify" viewBox="0 0 810 809.999993" height="1080" preserveAspectRatio="xMidYMid meet" version="1.0"><defs><clipPath id="id1"><path d="M 313 15.835938 L 494 15.835938 L 494 418 L 313 418 Z M 313 15.835938 " clip-rule="nonzero"/></clipPath><clipPath id="id2"><path d="M 170 606 L 646 606 L 646 794.335938 L 170 794.335938 Z M 170 606 " clip-rule="nonzero"/></clipPath></defs><path fill="#95c127" d="M 326.492188 249.84375 C 404.320312 328.640625 403.652344 455.605469 403.652344 455.605469 C 403.652344 455.605469 276.769531 454.839844 198.910156 376.074219 C 121.046875 297.3125 102.238281 189.625 121.75 170.316406 C 141.289062 150.976562 248.660156 171.078125 326.492188 249.84375 Z M 326.492188 249.84375 " fill-opacity="1" fill-rule="nonzero"/><path fill="#68a52c" d="M 362.3125 404.964844 C 298.808594 340.691406 235.308594 276.414062 171.808594 212.171875 C 166.199219 206.496094 157.449219 215.25 163.058594 220.925781 C 226.558594 285.199219 290.0625 349.476562 353.5625 413.71875 C 359.171875 419.425781 367.953125 410.667969 362.3125 404.964844 Z M 362.3125 404.964844 " fill-opacity="1" fill-rule="nonzero"/><path fill="#68a52c" d="M 327.621094 366.589844 C 314.847656 343.191406 312.527344 319 323.015625 294.261719 C 326.09375 287 315.425781 280.683594 312.316406 288.007812 C 300.03125 317.015625 301.859375 345.265625 316.917969 372.84375 C 320.761719 379.859375 331.460938 373.605469 327.621094 366.589844 Z M 327.621094 366.589844 " fill-opacity="1" fill-rule="nonzero"/><path fill="#68a52c" d="M 255.824219 296.152344 C 244.546875 277.480469 241.558594 256.554688 247.257812 235.507812 C 249.332031 227.789062 237.414062 224.496094 235.308594 232.210938 C 228.785156 256.371094 232.167969 280.992188 245.125 302.40625 C 249.269531 309.238281 259.972656 303.015625 255.824219 296.152344 Z M 255.824219 296.152344 " fill-opacity="1" fill-rule="nonzero"/><path fill="#68a52c" d="M 310.792969 350.664062 C 284.148438 335.71875 256.007812 332.851562 227.535156 344.5625 C 220.25 347.554688 223.449219 359.542969 230.828125 356.523438 C 256.28125 346.058594 280.519531 347.890625 304.542969 361.402344 C 311.523438 365.277344 317.773438 354.570312 310.792969 350.664062 Z M 310.792969 350.664062 " fill-opacity="1" fill-rule="nonzero"/><path fill="#68a52c" d="M 241.222656 278 C 219.972656 264.792969 195.371094 261.160156 171.167969 267.445312 C 163.453125 269.429688 166.714844 281.386719 174.460938 279.402344 C 195.585938 273.945312 216.4375 277.238281 234.941406 288.707031 C 241.773438 292.917969 247.992188 282.210938 241.222656 278 Z M 241.222656 278 " fill-opacity="1" fill-rule="nonzero"/><path fill="#95c127" d="M 608.484375 376.960938 C 529.738281 454.839844 402.859375 454.171875 402.859375 454.171875 C 402.859375 454.171875 403.621094 327.207031 482.335938 249.296875 C 561.046875 171.382812 668.664062 152.5625 687.960938 172.085938 C 707.289062 191.609375 687.226562 299.050781 608.484375 376.960938 Z M 608.484375 376.960938 " fill-opacity="1" fill-rule="nonzero"/><path fill="#68a52c" d="M 453.464844 412.804688 C 517.699219 349.261719 581.929688 285.71875 646.132812 222.175781 C 651.804688 216.5625 643.054688 207.808594 637.382812 213.421875 C 573.152344 276.964844 508.917969 340.507812 444.714844 404.050781 C 439.015625 409.664062 447.792969 418.417969 453.464844 412.804688 Z M 453.464844 412.804688 " fill-opacity="1" fill-rule="nonzero"/><path fill="#68a52c" d="M 491.816406 378.089844 C 515.199219 365.308594 539.371094 362.988281 564.097656 373.484375 C 571.351562 376.5625 577.664062 365.886719 570.347656 362.777344 C 541.355469 350.480469 513.125 352.3125 485.566406 367.382812 C 478.554688 371.195312 484.804688 381.902344 491.816406 378.089844 Z M 491.816406 378.089844 " fill-opacity="1" fill-rule="nonzero"/><path fill="#68a52c" d="M 562.207031 306.25 C 580.863281 294.960938 601.777344 291.972656 622.8125 297.675781 C 630.523438 299.75 633.816406 287.824219 626.105469 285.71875 C 601.960938 279.191406 577.359375 282.578125 555.957031 295.542969 C 549.160156 299.660156 555.378906 310.398438 562.207031 306.25 Z M 562.207031 306.25 " fill-opacity="1" fill-rule="nonzero"/><path fill="#68a52c" d="M 507.757812 361.25 C 522.695312 334.589844 525.5625 306.433594 513.855469 277.941406 C 510.867188 270.648438 498.886719 273.851562 501.90625 281.234375 C 512.363281 306.707031 510.535156 330.957031 497.027344 354.996094 C 493.15625 361.953125 503.855469 368.207031 507.757812 361.25 Z M 507.757812 361.25 " fill-opacity="1" fill-rule="nonzero"/><path fill="#68a52c" d="M 580.34375 291.605469 C 593.546875 270.34375 597.171875 245.726562 590.894531 221.503906 C 588.910156 213.785156 576.960938 217.050781 578.941406 224.800781 C 584.398438 245.941406 581.109375 266.804688 569.644531 285.320312 C 565.4375 292.15625 576.136719 298.410156 580.34375 291.605469 Z M 580.34375 291.605469 " fill-opacity="1" fill-rule="nonzero"/><path fill="#b2cc17" d="M 403.652344 744.0625 C 387.1875 744.0625 373.835938 730.703125 373.835938 714.230469 L 373.835938 394.042969 C 373.835938 377.570312 387.1875 364.210938 403.652344 364.210938 C 420.113281 364.210938 433.464844 377.570312 433.464844 394.042969 L 433.464844 714.230469 C 433.433594 730.703125 420.082031 744.0625 403.652344 744.0625 Z M 403.652344 744.0625 " fill-opacity="1" fill-rule="nonzero"/><g clip-path="url(#id1)"><path fill="#b2cc17" d="M 493.339844 217.082031 C 492.699219 327.878906 402.492188 417.167969 402.492188 417.167969 C 402.492188 417.167969 313.289062 326.839844 313.929688 216.074219 C 314.570312 105.277344 377.3125 15.835938 404.777344 15.988281 C 432.246094 16.109375 493.980469 106.285156 493.339844 217.082031 Z M 493.339844 217.082031 " fill-opacity="1" fill-rule="nonzero"/></g><path fill="#73b731" d="M 409.046875 352.128906 C 409.566406 261.742188 410.082031 171.382812 410.601562 80.996094 C 410.632812 73.003906 398.253906 73.003906 398.222656 80.996094 C 397.707031 171.382812 397.1875 261.742188 396.667969 352.128906 C 396.640625 360.089844 409.015625 360.089844 409.046875 352.128906 Z M 409.046875 352.128906 " fill-opacity="1" fill-rule="nonzero"/><path fill="#73b731" d="M 411.605469 300.515625 C 418.710938 275.132812 434.808594 255.703125 459.5625 246.03125 C 466.910156 243.164062 463.707031 231.175781 456.269531 234.074219 C 427.335938 245.359375 408.039062 267.355469 399.65625 297.21875 C 397.523438 304.90625 409.472656 308.171875 411.605469 300.515625 Z M 411.605469 300.515625 " fill-opacity="1" fill-rule="nonzero"/><path fill="#73b731" d="M 410.632812 199.875 C 415.660156 178.765625 428.617188 161.46875 447.519531 150.824219 C 454.46875 146.917969 448.21875 136.179688 441.269531 140.117188 C 419.714844 152.257812 404.441406 172.480469 398.679688 196.582031 C 396.851562 204.359375 408.773438 207.65625 410.632812 199.875 Z M 410.632812 199.875 " fill-opacity="1" fill-rule="nonzero"/><path fill="#73b731" d="M 410.996094 277.175781 C 402.949219 247.191406 383.867188 225.074219 355.054688 213.421875 C 347.679688 210.429688 344.449219 222.417969 351.765625 225.378906 C 376.425781 235.355469 392.21875 255.03125 399.046875 280.472656 C 401.121094 288.160156 413.070312 284.894531 410.996094 277.175781 Z M 410.996094 277.175781 " fill-opacity="1" fill-rule="nonzero"/><path fill="#73b731" d="M 413.132812 176.570312 C 407.675781 152.410156 392.554688 132.0625 371.152344 119.648438 C 364.234375 115.652344 357.984375 126.359375 364.902344 130.355469 C 383.683594 141.246094 396.394531 158.722656 401.179688 179.863281 C 402.949219 187.644531 414.871094 184.347656 413.132812 176.570312 Z M 413.132812 176.570312 " fill-opacity="1" fill-rule="nonzero"/><g clip-path="url(#id2)"><path fill="#dc7d3f" d="M 610.097656 674.511719 C 608.605469 674.511719 607.171875 674.632812 605.738281 674.816406 C 596.59375 656.847656 577.96875 644.492188 556.445312 644.492188 C 551.199219 644.492188 546.140625 645.285156 541.324219 646.628906 C 533 626.585938 513.277344 612.464844 490.230469 612.464844 C 478.339844 612.464844 467.367188 616.246094 458.371094 622.621094 C 445.203125 612.769531 428.894531 606.878906 411.179688 606.878906 C 410.050781 606.878906 408.957031 607.003906 407.828125 607.0625 C 406.699219 607.003906 405.601562 606.878906 404.472656 606.878906 C 386.761719 606.878906 370.453125 612.769531 357.28125 622.621094 C 348.257812 616.246094 337.285156 612.464844 325.425781 612.464844 C 302.378906 612.464844 282.621094 626.554688 274.332031 646.628906 C 269.511719 645.257812 264.453125 644.492188 259.210938 644.492188 C 237.6875 644.492188 219.058594 656.847656 209.914062 674.816406 C 208.480469 674.632812 207.019531 674.511719 205.554688 674.511719 C 186.105469 674.511719 170.34375 690.28125 170.34375 709.746094 C 170.34375 729.207031 186.105469 744.980469 205.554688 744.980469 C 211.53125 744.980469 217.167969 743.484375 222.078125 740.832031 C 231.894531 749.738281 244.910156 755.230469 259.210938 755.230469 C 265.855469 755.230469 272.226562 753.976562 278.140625 751.84375 C 287.835938 767.859375 305.363281 778.597656 325.453125 778.597656 C 336.308594 778.597656 346.367188 775.421875 354.902344 770.023438 C 366.457031 784.726562 384.351562 794.214844 404.503906 794.214844 C 426.058594 794.214844 445.050781 783.386719 456.453125 766.882812 C 465.8125 774.171875 477.515625 778.597656 490.289062 778.597656 C 510.382812 778.597656 527.910156 767.859375 537.605469 751.84375 C 543.519531 754.007812 549.859375 755.230469 556.535156 755.230469 C 570.835938 755.230469 583.851562 749.738281 593.667969 740.832031 C 598.605469 743.453125 604.214844 744.980469 610.191406 744.980469 C 629.640625 744.980469 645.402344 729.207031 645.402344 709.746094 C 645.28125 690.28125 629.519531 674.511719 610.097656 674.511719 Z M 610.097656 674.511719 " fill-opacity="1" fill-rule="nonzero"/></g><path fill="#a86230" d="M 326.703125 699.863281 C 326.703125 700.433594 326.675781 701.007812 326.621094 701.578125 C 326.5625 702.148438 326.480469 702.714844 326.367188 703.277344 C 326.257812 703.839844 326.117188 704.394531 325.949219 704.945312 C 325.785156 705.492188 325.59375 706.03125 325.371094 706.5625 C 325.152344 707.09375 324.910156 707.609375 324.636719 708.117188 C 324.367188 708.621094 324.074219 709.113281 323.753906 709.589844 C 323.4375 710.066406 323.097656 710.527344 322.734375 710.96875 C 322.367188 711.414062 321.984375 711.835938 321.578125 712.242188 C 321.175781 712.648438 320.75 713.03125 320.308594 713.398438 C 319.863281 713.761719 319.402344 714.101562 318.925781 714.421875 C 318.449219 714.738281 317.960938 715.035156 317.453125 715.304688 C 316.949219 715.574219 316.433594 715.820312 315.902344 716.039062 C 315.371094 716.257812 314.832031 716.449219 314.285156 716.617188 C 313.738281 716.785156 313.183594 716.921875 312.621094 717.035156 C 312.058594 717.148438 311.492188 717.230469 310.921875 717.289062 C 310.351562 717.34375 309.777344 717.371094 309.207031 717.371094 C 308.632812 717.371094 308.0625 717.34375 307.492188 717.289062 C 306.921875 717.230469 306.355469 717.148438 305.792969 717.035156 C 305.230469 716.921875 304.675781 716.785156 304.125 716.617188 C 303.578125 716.449219 303.039062 716.257812 302.507812 716.039062 C 301.980469 715.820312 301.460938 715.574219 300.957031 715.304688 C 300.453125 715.035156 299.960938 714.738281 299.484375 714.421875 C 299.007812 714.101562 298.546875 713.761719 298.105469 713.398438 C 297.660156 713.03125 297.238281 712.648438 296.832031 712.242188 C 296.425781 711.835938 296.042969 711.414062 295.679688 710.96875 C 295.316406 710.527344 294.972656 710.066406 294.65625 709.589844 C 294.335938 709.113281 294.042969 708.621094 293.773438 708.117188 C 293.503906 707.609375 293.257812 707.09375 293.039062 706.5625 C 292.820312 706.03125 292.625 705.492188 292.460938 704.945312 C 292.292969 704.394531 292.15625 703.839844 292.042969 703.277344 C 291.929688 702.714844 291.847656 702.148438 291.792969 701.578125 C 291.734375 701.007812 291.707031 700.433594 291.707031 699.863281 C 291.707031 699.289062 291.734375 698.714844 291.792969 698.144531 C 291.847656 697.574219 291.929688 697.007812 292.042969 696.445312 C 292.15625 695.882812 292.292969 695.328125 292.460938 694.777344 C 292.625 694.230469 292.820312 693.691406 293.039062 693.160156 C 293.257812 692.628906 293.503906 692.113281 293.773438 691.605469 C 294.042969 691.101562 294.335938 690.609375 294.65625 690.132812 C 294.972656 689.65625 295.316406 689.195312 295.679688 688.753906 C 296.042969 688.308594 296.425781 687.886719 296.832031 687.480469 C 297.238281 687.074219 297.660156 686.691406 298.105469 686.324219 C 298.546875 685.960938 299.007812 685.621094 299.484375 685.300781 C 299.960938 684.984375 300.453125 684.6875 300.957031 684.417969 C 301.460938 684.148438 301.980469 683.902344 302.507812 683.683594 C 303.039062 683.464844 303.578125 683.273438 304.125 683.105469 C 304.675781 682.9375 305.230469 682.800781 305.792969 682.6875 C 306.355469 682.574219 306.921875 682.492188 307.492188 682.433594 C 308.0625 682.378906 308.632812 682.351562 309.207031 682.351562 C 309.777344 682.351562 310.351562 682.378906 310.921875 682.433594 C 311.492188 682.492188 312.058594 682.574219 312.621094 682.6875 C 313.183594 682.800781 313.738281 682.9375 314.285156 683.105469 C 314.832031 683.273438 315.371094 683.464844 315.902344 683.683594 C 316.433594 683.902344 316.949219 684.148438 317.453125 684.417969 C 317.960938 684.6875 318.449219 684.984375 318.925781 685.300781 C 319.402344 685.621094 319.863281 685.960938 320.308594 686.324219 C 320.75 686.691406 321.175781 687.074219 321.578125 687.480469 C 321.984375 687.886719 322.367188 688.308594 322.734375 688.753906 C 323.097656 689.195312 323.4375 689.65625 323.753906 690.132812 C 324.074219 690.609375 324.367188 691.101562 324.636719 691.605469 C 324.910156 692.113281 325.152344 692.628906 325.371094 693.160156 C 325.59375 693.691406 325.785156 694.230469 325.953125 694.777344 C 326.117188 695.328125 326.257812 695.882812 326.367188 696.445312 C 326.480469 697.007812 326.5625 697.574219 326.621094 698.144531 C 326.675781 698.714844 326.703125 699.289062 326.703125 699.863281 Z M 326.703125 699.863281 " fill-opacity="1" fill-rule="nonzero"/><path fill="#a86230" d="M 316.765625 656.238281 C 316.765625 656.894531 316.703125 657.542969 316.574219 658.183594 C 316.445312 658.828125 316.257812 659.449219 316.007812 660.054688 C 315.757812 660.660156 315.449219 661.234375 315.085938 661.78125 C 314.722656 662.324219 314.308594 662.828125 313.847656 663.292969 C 313.382812 663.753906 312.878906 664.167969 312.335938 664.53125 C 311.792969 664.894531 311.21875 665.203125 310.613281 665.453125 C 310.007812 665.703125 309.382812 665.894531 308.742188 666.023438 C 308.101562 666.148438 307.453125 666.214844 306.796875 666.214844 C 306.144531 666.214844 305.496094 666.148438 304.851562 666.023438 C 304.210938 665.894531 303.585938 665.703125 302.984375 665.453125 C 302.378906 665.203125 301.804688 664.894531 301.257812 664.53125 C 300.714844 664.167969 300.210938 663.753906 299.75 663.292969 C 299.285156 662.828125 298.871094 662.324219 298.507812 661.78125 C 298.144531 661.234375 297.839844 660.660156 297.585938 660.054688 C 297.335938 659.449219 297.148438 658.828125 297.019531 658.183594 C 296.890625 657.542969 296.828125 656.894531 296.828125 656.238281 C 296.828125 655.582031 296.890625 654.933594 297.019531 654.292969 C 297.148438 653.648438 297.335938 653.027344 297.585938 652.421875 C 297.839844 651.816406 298.144531 651.242188 298.507812 650.695312 C 298.871094 650.152344 299.285156 649.648438 299.75 649.183594 C 300.210938 648.722656 300.714844 648.308594 301.257812 647.945312 C 301.804688 647.582031 302.378906 647.273438 302.984375 647.023438 C 303.585938 646.773438 304.210938 646.582031 304.851562 646.453125 C 305.496094 646.328125 306.144531 646.261719 306.796875 646.261719 C 307.453125 646.261719 308.101562 646.328125 308.742188 646.453125 C 309.382812 646.582031 310.007812 646.773438 310.613281 647.023438 C 311.21875 647.273438 311.792969 647.582031 312.335938 647.945312 C 312.878906 648.308594 313.382812 648.722656 313.847656 649.183594 C 314.308594 649.648438 314.722656 650.152344 315.085938 650.695312 C 315.449219 651.242188 315.757812 651.816406 316.007812 652.421875 C 316.257812 653.027344 316.445312 653.648438 316.574219 654.292969 C 316.703125 654.933594 316.765625 655.582031 316.765625 656.238281 Z M 316.765625 656.238281 " fill-opacity="1" fill-rule="nonzero"/><path fill="#a86230" d="M 277.195312 688.175781 C 277.195312 688.832031 277.132812 689.480469 277.003906 690.125 C 276.875 690.765625 276.6875 691.390625 276.4375 691.996094 C 276.1875 692.601562 275.878906 693.175781 275.515625 693.71875 C 275.152344 694.265625 274.738281 694.769531 274.277344 695.230469 C 273.8125 695.695312 273.308594 696.109375 272.765625 696.472656 C 272.222656 696.835938 271.648438 697.144531 271.042969 697.394531 C 270.4375 697.644531 269.8125 697.832031 269.171875 697.960938 C 268.53125 698.089844 267.882812 698.152344 267.226562 698.152344 C 266.574219 698.152344 265.925781 698.089844 265.28125 697.960938 C 264.640625 697.832031 264.015625 697.644531 263.414062 697.394531 C 262.808594 697.144531 262.234375 696.835938 261.6875 696.472656 C 261.144531 696.109375 260.640625 695.695312 260.179688 695.230469 C 259.714844 694.769531 259.300781 694.265625 258.9375 693.71875 C 258.574219 693.175781 258.265625 692.601562 258.015625 691.996094 C 257.765625 691.390625 257.578125 690.765625 257.449219 690.125 C 257.320312 689.480469 257.257812 688.832031 257.257812 688.175781 C 257.257812 687.523438 257.320312 686.875 257.449219 686.230469 C 257.578125 685.589844 257.765625 684.964844 258.015625 684.359375 C 258.265625 683.753906 258.574219 683.179688 258.9375 682.636719 C 259.300781 682.089844 259.714844 681.585938 260.179688 681.125 C 260.640625 680.660156 261.144531 680.246094 261.6875 679.882812 C 262.234375 679.519531 262.808594 679.210938 263.414062 678.960938 C 264.015625 678.710938 264.640625 678.523438 265.28125 678.394531 C 265.925781 678.265625 266.574219 678.203125 267.226562 678.203125 C 267.882812 678.203125 268.53125 678.265625 269.171875 678.394531 C 269.8125 678.523438 270.4375 678.710938 271.042969 678.960938 C 271.648438 679.210938 272.222656 679.519531 272.765625 679.882812 C 273.308594 680.246094 273.8125 680.660156 274.277344 681.125 C 274.738281 681.585938 275.152344 682.089844 275.515625 682.636719 C 275.878906 683.179688 276.1875 683.753906 276.4375 684.359375 C 276.6875 684.964844 276.875 685.589844 277.003906 686.230469 C 277.132812 686.875 277.195312 687.523438 277.195312 688.175781 Z M 277.195312 688.175781 " fill-opacity="1" fill-rule="nonzero"/><path fill="#a86230" d="M 523.976562 700.378906 C 523.976562 700.953125 523.949219 701.527344 523.894531 702.097656 C 523.835938 702.667969 523.753906 703.234375 523.640625 703.796875 C 523.53125 704.359375 523.390625 704.914062 523.222656 705.460938 C 523.058594 706.011719 522.863281 706.550781 522.644531 707.082031 C 522.425781 707.609375 522.179688 708.128906 521.910156 708.632812 C 521.640625 709.140625 521.347656 709.632812 521.027344 710.109375 C 520.710938 710.585938 520.367188 711.042969 520.003906 711.488281 C 519.640625 711.929688 519.257812 712.355469 518.851562 712.761719 C 518.445312 713.167969 518.023438 713.550781 517.578125 713.914062 C 517.136719 714.277344 516.675781 714.621094 516.199219 714.9375 C 515.722656 715.257812 515.234375 715.550781 514.726562 715.824219 C 514.222656 716.09375 513.703125 716.335938 513.175781 716.558594 C 512.644531 716.777344 512.105469 716.96875 511.558594 717.136719 C 511.011719 717.300781 510.453125 717.441406 509.890625 717.554688 C 509.332031 717.664062 508.765625 717.75 508.195312 717.804688 C 507.625 717.863281 507.050781 717.890625 506.480469 717.890625 C 505.90625 717.890625 505.332031 717.863281 504.761719 717.804688 C 504.191406 717.75 503.625 717.664062 503.066406 717.554688 C 502.503906 717.441406 501.949219 717.300781 501.398438 717.136719 C 500.851562 716.96875 500.3125 716.777344 499.78125 716.558594 C 499.253906 716.335938 498.734375 716.09375 498.230469 715.824219 C 497.722656 715.550781 497.234375 715.257812 496.757812 714.9375 C 496.28125 714.621094 495.820312 714.277344 495.378906 713.914062 C 494.933594 713.550781 494.511719 713.167969 494.105469 712.761719 C 493.699219 712.355469 493.316406 711.929688 492.953125 711.488281 C 492.589844 711.042969 492.246094 710.585938 491.929688 710.109375 C 491.609375 709.632812 491.316406 709.140625 491.046875 708.632812 C 490.777344 708.128906 490.53125 707.609375 490.3125 707.082031 C 490.09375 706.550781 489.898438 706.011719 489.734375 705.460938 C 489.566406 704.914062 489.429688 704.359375 489.316406 703.796875 C 489.203125 703.234375 489.121094 702.667969 489.0625 702.097656 C 489.007812 701.527344 488.980469 700.953125 488.980469 700.378906 C 488.980469 699.804688 489.007812 699.234375 489.0625 698.664062 C 489.121094 698.09375 489.203125 697.527344 489.316406 696.964844 C 489.429688 696.402344 489.566406 695.847656 489.734375 695.296875 C 489.898438 694.75 490.09375 694.207031 490.3125 693.679688 C 490.53125 693.148438 490.777344 692.632812 491.046875 692.125 C 491.316406 691.621094 491.609375 691.128906 491.929688 690.652344 C 492.246094 690.175781 492.589844 689.714844 492.953125 689.273438 C 493.316406 688.828125 493.699219 688.402344 494.105469 688 C 494.511719 687.59375 494.933594 687.207031 495.378906 686.84375 C 495.820312 686.480469 496.28125 686.140625 496.757812 685.820312 C 497.234375 685.503906 497.722656 685.207031 498.230469 684.9375 C 498.734375 684.667969 499.253906 684.421875 499.78125 684.203125 C 500.3125 683.984375 500.851562 683.789062 501.398438 683.625 C 501.949219 683.457031 502.503906 683.316406 503.066406 683.207031 C 503.625 683.09375 504.191406 683.011719 504.761719 682.953125 C 505.332031 682.898438 505.90625 682.871094 506.480469 682.871094 C 507.050781 682.871094 507.625 682.898438 508.195312 682.953125 C 508.765625 683.011719 509.332031 683.09375 509.890625 683.207031 C 510.453125 683.316406 511.007812 683.457031 511.558594 683.625 C 512.105469 683.789062 512.644531 683.984375 513.175781 684.203125 C 513.703125 684.421875 514.222656 684.667969 514.726562 684.9375 C 515.234375 685.207031 515.722656 685.503906 516.199219 685.820312 C 516.675781 686.140625 517.136719 686.480469 517.578125 686.84375 C 518.023438 687.207031 518.445312 687.59375 518.851562 688 C 519.257812 688.402344 519.640625 688.828125 520.003906 689.273438 C 520.367188 689.714844 520.710938 690.175781 521.027344 690.652344 C 521.347656 691.128906 521.640625 691.621094 521.910156 692.125 C 522.179688 692.632812 522.425781 693.148438 522.644531 693.679688 C 522.863281 694.207031 523.058594 694.75 523.222656 695.296875 C 523.390625 695.847656 523.53125 696.402344 523.640625 696.964844 C 523.753906 697.527344 523.835938 698.09375 523.894531 698.664062 C 523.949219 699.234375 523.976562 699.804688 523.976562 700.378906 Z M 523.976562 700.378906 " fill-opacity="1" fill-rule="nonzero"/><path fill="#a86230" d="M 518.855469 656.757812 C 518.855469 657.410156 518.792969 658.0625 518.664062 658.703125 C 518.535156 659.34375 518.347656 659.96875 518.097656 660.574219 C 517.847656 661.179688 517.539062 661.753906 517.175781 662.300781 C 516.8125 662.84375 516.398438 663.347656 515.9375 663.8125 C 515.472656 664.273438 514.96875 664.6875 514.425781 665.050781 C 513.882812 665.414062 513.304688 665.722656 512.703125 665.972656 C 512.097656 666.222656 511.472656 666.414062 510.832031 666.539062 C 510.191406 666.667969 509.542969 666.730469 508.886719 666.730469 C 508.234375 666.730469 507.585938 666.667969 506.941406 666.539062 C 506.300781 666.414062 505.675781 666.222656 505.070312 665.972656 C 504.46875 665.722656 503.894531 665.414062 503.347656 665.050781 C 502.804688 664.6875 502.300781 664.273438 501.839844 663.8125 C 501.375 663.347656 500.960938 662.84375 500.597656 662.300781 C 500.234375 661.753906 499.925781 661.179688 499.675781 660.574219 C 499.425781 659.96875 499.238281 659.34375 499.109375 658.703125 C 498.980469 658.0625 498.917969 657.410156 498.917969 656.757812 C 498.917969 656.101562 498.980469 655.453125 499.109375 654.8125 C 499.238281 654.167969 499.425781 653.542969 499.675781 652.941406 C 499.925781 652.335938 500.234375 651.757812 500.597656 651.214844 C 500.960938 650.671875 501.375 650.167969 501.839844 649.703125 C 502.300781 649.242188 502.804688 648.828125 503.347656 648.460938 C 503.894531 648.097656 504.46875 647.792969 505.070312 647.542969 C 505.675781 647.289062 506.300781 647.101562 506.941406 646.972656 C 507.585938 646.84375 508.234375 646.78125 508.886719 646.78125 C 509.542969 646.78125 510.191406 646.84375 510.832031 646.972656 C 511.472656 647.101562 512.097656 647.289062 512.703125 647.542969 C 513.304688 647.792969 513.882812 648.097656 514.425781 648.460938 C 514.96875 648.828125 515.472656 649.242188 515.9375 649.703125 C 516.398438 650.167969 516.8125 650.671875 517.175781 651.214844 C 517.539062 651.757812 517.847656 652.335938 518.097656 652.941406 C 518.347656 653.542969 518.535156 654.167969 518.664062 654.8125 C 518.792969 655.453125 518.855469 656.101562 518.855469 656.757812 Z M 518.855469 656.757812 " fill-opacity="1" fill-rule="nonzero"/><path fill="#a86230" d="M 558.425781 688.695312 C 558.425781 689.351562 558.363281 690 558.234375 690.640625 C 558.105469 691.285156 557.917969 691.910156 557.667969 692.511719 C 557.417969 693.117188 557.109375 693.695312 556.746094 694.238281 C 556.382812 694.78125 555.96875 695.285156 555.507812 695.75 C 555.042969 696.214844 554.539062 696.625 553.996094 696.992188 C 553.453125 697.355469 552.878906 697.660156 552.273438 697.914062 C 551.667969 698.164062 551.042969 698.351562 550.402344 698.480469 C 549.761719 698.609375 549.113281 698.671875 548.457031 698.671875 C 547.804688 698.671875 547.15625 698.609375 546.511719 698.480469 C 545.871094 698.351562 545.246094 698.164062 544.640625 697.914062 C 544.039062 697.660156 543.464844 697.355469 542.917969 696.992188 C 542.375 696.625 541.871094 696.214844 541.410156 695.75 C 540.945312 695.285156 540.53125 694.78125 540.167969 694.238281 C 539.804688 693.695312 539.496094 693.117188 539.246094 692.511719 C 538.996094 691.910156 538.808594 691.285156 538.679688 690.640625 C 538.550781 690 538.488281 689.351562 538.488281 688.695312 C 538.488281 688.042969 538.550781 687.390625 538.679688 686.75 C 538.808594 686.109375 538.996094 685.484375 539.246094 684.878906 C 539.496094 684.273438 539.804688 683.699219 540.167969 683.152344 C 540.53125 682.609375 540.945312 682.105469 541.410156 681.644531 C 541.871094 681.179688 542.375 680.765625 542.917969 680.402344 C 543.464844 680.039062 544.039062 679.730469 544.640625 679.480469 C 545.246094 679.230469 545.871094 679.039062 546.511719 678.914062 C 547.15625 678.785156 547.804688 678.722656 548.457031 678.722656 C 549.113281 678.722656 549.761719 678.785156 550.402344 678.914062 C 551.042969 679.039062 551.667969 679.230469 552.273438 679.480469 C 552.878906 679.730469 553.453125 680.039062 553.996094 680.402344 C 554.539062 680.765625 555.042969 681.179688 555.507812 681.640625 C 555.96875 682.105469 556.382812 682.609375 556.746094 683.152344 C 557.109375 683.699219 557.417969 684.273438 557.667969 684.878906 C 557.917969 685.484375 558.105469 686.109375 558.234375 686.75 C 558.363281 687.390625 558.425781 688.042969 558.425781 688.695312 Z M 558.425781 688.695312 " fill-opacity="1" fill-rule="nonzero"/></svg>