<svg xmlns="http://www.w3.org/2000/svg" xmlns:xlink="http://www.w3.org/1999/xlink" width="1080" zoomAndPan="magnify" viewBox="0 0 810 809.999993" height="1080" preserveAspectRatio="xMidYMid meet" version="1.0"><defs><clipPath id="id1"><path d="M 37.882812 0 L 772.042969 0 L 772.042969 810 L 37.882812 810 Z M 37.882812 0 " clip-rule="nonzero"/></clipPath></defs><g clip-path="url(#id1)"><path fill="#f2df3a" d="M 90.910156 810.011719 L 772.042969 810.011719 C 705.445312 704.339844 591.046875 631.828125 459.203125 622.851562 C 445.558594 466.089844 444.632812 422.824219 445.410156 404.191406 C 447.25 359.996094 454.609375 319.292969 472.527344 278.847656 C 472.625 278.625 472.726562 278.402344 472.824219 278.175781 C 491.503906 236.039062 503.675781 209.199219 524.140625 179.542969 C 546.632812 146.945312 574.574219 117.796875 606.226562 93.257812 C 626.867188 77.257812 655.625 56.585938 693.210938 33.078125 L 597.792969 115.066406 C 480.238281 234.367188 477.132812 365.753906 479.367188 366.742188 C 583.945312 412.992188 651.417969 338.953125 672.679688 295.332031 C 723.1875 191.699219 694.449219 89.804688 740.882812 0 C 700.722656 2.277344 628.710938 12.433594 551.824219 59.019531 C 519.566406 78.566406 393.160156 141.1875 397.515625 297.941406 C 329.59375 207.375 255.578125 203.890625 212.910156 201.277344 C 148.808594 197.351562 81.421875 206.507812 37.882812 231.761719 C 125.832031 269.203125 109.125 332.847656 169.371094 390.257812 C 194.730469 414.421875 293.433594 459.632812 356.375 398.871094 C 282.574219 254.398438 90.128906 236.113281 90.128906 236.113281 C 174.597656 228.277344 261.125 270.453125 312.179688 304.910156 C 356.714844 334.972656 383.1875 383.613281 387.3125 437.191406 C 393.078125 512.109375 395.464844 573.578125 395.757812 623.480469 C 267.289062 634.789062 156.15625 706.480469 90.910156 810.011719 " fill-opacity="1" fill-rule="nonzero"/></g></svg>