<svg xmlns="http://www.w3.org/2000/svg" xmlns:xlink="http://www.w3.org/1999/xlink" width="1080" zoomAndPan="magnify" viewBox="0 0 810 809.999993" height="1080" preserveAspectRatio="xMidYMid meet" version="1.0"><defs><clipPath id="id1"><path d="M 278 8.101562 L 423 8.101562 L 423 773 L 278 773 Z M 278 8.101562 " clip-rule="nonzero"/></clipPath><clipPath id="id2"><path d="M 425.375 492 L 794.46875 492 L 794.46875 784 L 425.375 784 Z M 425.375 492 " clip-rule="nonzero"/></clipPath><clipPath id="id3"><path d="M 112 22 L 292 22 L 292 801.550781 L 112 801.550781 Z M 112 22 " clip-rule="nonzero"/></clipPath></defs><g clip-path="url(#id1)"><path fill="#7fbb29" d="M 284.027344 547.605469 C 265.921875 363.191406 286.546875 170.046875 376.628906 8.105469 C 371.410156 187.765625 434.355469 365.257812 420.808594 544.488281 C 415.535156 614.226562 400.839844 686.632812 378.449219 752.960938 C 367.070312 786.640625 345.480469 771.886719 332.992188 746.5 C 318.777344 717.609375 308.734375 686.691406 301.222656 655.433594 C 292.707031 620.011719 287.585938 583.832031 284.027344 547.605469 " fill-opacity="1" fill-rule="nonzero"/></g><path fill="#7fbb29" d="M 406.507812 352.953125 C 449.992188 246.746094 514.007812 150.363281 579.136719 55.867188 C 574.890625 109.359375 570.628906 162.855469 566.347656 216.347656 C 563.179688 255.945312 560.003906 295.582031 554.019531 334.859375 C 543.726562 402.328125 525.125 468.535156 498.761719 531.503906 C 482.125 571.25 462.433594 609.648438 442.769531 647.992188 C 422.367188 687.78125 401.96875 727.5625 381.566406 767.347656 C 384.648438 761.335938 368.921875 723.257812 367.394531 714.648438 C 364.628906 699.03125 361.332031 683.640625 358.980469 667.984375 C 353.738281 632.988281 353.03125 597.203125 355.472656 561.941406 C 360.445312 490.054688 379.265625 419.488281 406.507812 352.953125 " fill-opacity="1" fill-rule="nonzero"/><path fill="#99cb36" d="M 744.089844 173.734375 C 713.839844 211.621094 690.8125 255.246094 676.609375 301.589844 C 665.25 338.648438 659.539062 377.203125 649.601562 414.671875 C 625.703125 504.777344 576.910156 588.152344 510.039062 653.117188 C 470.273438 691.761719 422.613281 726.316406 402.351562 777.925781 C 412.515625 722.554688 423.671875 667.375 435.828125 612.40625 C 446.128906 565.835938 453.589844 516.121094 471.019531 471.601562 C 503.324219 389.085938 556.730469 314.5625 622.917969 255.828125 C 641.640625 239.222656 661.460938 223.828125 682.214844 209.839844 C 698.175781 199.082031 732.632812 188.085938 744.089844 173.734375 " fill-opacity="1" fill-rule="nonzero"/><path fill="#7aaa2a" d="M 546.824219 546.007812 C 587.820312 460.480469 676.617188 399.875 771.21875 392.871094 C 746.886719 415.71875 732.316406 446.734375 715.878906 475.773438 C 671.707031 553.84375 610.40625 622.160156 537.550781 674.492188 C 495.183594 704.921875 447.386719 731.632812 420.191406 776.140625 C 434.511719 710.039062 450.5 640.613281 496.113281 590.65625 C 518.378906 566.269531 546.964844 547.527344 565.363281 520.101562 " fill-opacity="1" fill-rule="nonzero"/><g clip-path="url(#id2)"><path fill="#99cb36" d="M 794.472656 492.226562 C 765.308594 511.554688 749.457031 544.941406 729.332031 573.5625 C 693.628906 624.316406 642.296875 662.03125 588.726562 693.351562 C 535.152344 724.667969 478.46875 750.519531 425.632812 783.066406 C 433.222656 778.386719 441.996094 751.058594 446.808594 742.789062 C 455.0625 728.632812 463.972656 714.863281 473.507812 701.53125 C 492.566406 674.867188 514.097656 649.972656 537.742188 627.269531 C 581.585938 585.164062 628.203125 544.675781 685.550781 522.710938 C 720.808594 509.207031 757.730469 500.582031 794.472656 492.226562 " fill-opacity="1" fill-rule="nonzero"/></g><path fill="#7aaa2a" d="M 487.628906 35.332031 C 516.054688 134.363281 512.097656 240.550781 490.527344 341.296875 C 468.953125 442.039062 430.347656 538.265625 389.773438 632.976562 C 386.519531 581.988281 379.894531 531.210938 369.949219 481.09375 C 353.933594 400.382812 356.886719 334.8125 380.734375 256.503906 C 392.902344 216.554688 408.210938 177.574219 426.464844 140.011719 C 435.59375 121.234375 445.457031 102.808594 456.03125 84.8125 C 460.257812 77.617188 489.441406 41.648438 487.628906 35.332031 " fill-opacity="1" fill-rule="nonzero"/><path fill="#7aaa2a" d="M 254.097656 191.265625 C 267.148438 225.117188 286.753906 256.035156 301.675781 289.105469 C 333.445312 359.476562 343.238281 437.792969 345.941406 514.953125 C 348.648438 592.117188 344.667969 669.503906 350.613281 746.488281 C 212.871094 570.964844 156.296875 334.28125 199.769531 115.449219 C 203.761719 95.335938 217.789062 32.351562 230.453125 83.089844 C 239.503906 119.359375 240.394531 155.726562 254.097656 191.265625 " fill-opacity="1" fill-rule="nonzero"/><g clip-path="url(#id3)"><path fill="#7fbb29" d="M 152.875 22.324219 C 81.410156 225.191406 110.199219 453.433594 193.695312 651.648438 C 217.113281 707.246094 245.882812 762.65625 292 801.550781 C 265.992188 739.703125 277.507812 669.542969 278.625 602.460938 C 279.933594 524.007812 258.265625 455.394531 243.328125 379.878906 C 227.917969 302.003906 202.9375 228.566406 180.214844 152.648438 C 167.472656 110.074219 156.734375 66.695312 152.875 22.324219 " fill-opacity="1" fill-rule="nonzero"/></g><path fill="#99cb36" d="M 161.519531 298.371094 C 128.632812 247.847656 87.714844 201.140625 68.628906 143.972656 C 66.164062 197.328125 64.117188 250.710938 62.488281 304.101562 C 59.894531 388.878906 58.699219 475.839844 86.871094 555.84375 C 116.222656 639.195312 191.351562 736.945312 279.839844 763.914062 C 311.015625 773.417969 305.007812 743.617188 301.136719 721.347656 C 296.242188 693.203125 291.144531 665.089844 285.5 637.085938 C 274.257812 581.328125 260.953125 525.878906 242.980469 471.878906 C 222.757812 411.113281 196.519531 352.140625 161.519531 298.371094 " fill-opacity="1" fill-rule="nonzero"/><path fill="#7fbb29" d="M 63.796875 497.832031 C 80.597656 515.171875 97.398438 532.515625 114.191406 549.855469 C 135.304688 571.644531 156.503906 593.550781 173.953125 618.367188 C 207.191406 665.628906 225.59375 721.699219 238.730469 777.957031 C 220.554688 763.328125 197.007812 757.648438 175.742188 748.046875 C 124.425781 724.867188 86.566406 678.339844 62.660156 627.367188 C 45.660156 591.117188 34.957031 552.371094 26.113281 513.4375 C 24.179688 504.925781 15.199219 477.390625 28.726562 471.867188 C 40.652344 467.003906 56.53125 490.339844 63.796875 497.832031 " fill-opacity="1" fill-rule="nonzero"/></svg>